<?xml version="1.0" encoding="UTF-8" standalone="no"?>
<svg width="24px" height="24px" viewBox="0 0 24 24" version="1.1" xmlns="http://www.w3.org/2000/svg" xmlns:xlink="http://www.w3.org/1999/xlink" xmlns:sketch="http://www.bohemiancoding.com/sketch/ns">
    <!-- Generator: Sketch Beta 3.4 (15009) - http://www.bohemiancoding.com/sketch -->
    <title>Oval 30 + Shape</title>
    <desc>Created with Sketch Beta.</desc>
    <defs></defs>
    <g id="Direction-01" stroke="none" stroke-width="1" fill="none" fill-rule="evenodd" sketch:type="MSPage">
        <g id="Homepage" sketch:type="MSArtboardGroup" transform="translate(-75.000000, -2150.000000)">
            <g id="Oval-30-+-Shape" sketch:type="MSLayerGroup" transform="translate(75.000000, 2150.000000)">
                <circle id="Oval-30" fill="#4A484C" sketch:type="MSShapeGroup" cx="12" cy="12" r="10"></circle>
                <path d="M16.0013331,19.4987502 L16.0013331,16.9991668 C16.0013331,16.8538577 15.9546742,16.7338777 15.8613564,16.6392268 C15.7680387,16.5445759 15.6480587,16.497917 15.5014164,16.4992501 L14.0016664,16.4992501 L14.0016664,8.50058324 C14.0016664,8.35527412 13.9550075,8.23529412 13.8616897,8.14064323 C13.7683719,8.04599233 13.6483919,7.99933344 13.5017497,8.00066656 L8.5025829,8.00066656 C8.35727379,8.00066656 8.23729378,8.04732545 8.14264289,8.14064323 C8.047992,8.23396101 8.00133311,8.35394101 8.00266622,8.50058324 L8.00266622,11.0001666 C8.00266622,11.1454758 8.04932511,11.2654558 8.14264289,11.3601066 C8.23596067,11.4547575 8.35594068,11.5014164 8.5025829,11.5000833 L10.0023329,11.5000833 L10.0023329,16.4992501 L8.5025829,16.4992501 C8.35727379,16.4992501 8.23729378,16.545909 8.14264289,16.6392268 C8.047992,16.7325446 8.00133311,16.8525246 8.00266622,16.9991668 L8.00266622,19.4987502 C8.00266622,19.6440593 8.04932511,19.7640393 8.14264289,19.8586902 C8.23596067,19.9533411 8.35594068,20 8.5025829,19.9986669 L15.5014164,19.9986669 C15.6467255,19.9986669 15.7667055,19.952008 15.8613564,19.8586902 C15.9560073,19.7653724 16.0026662,19.6453924 16.0013331,19.4987502 L16.0013331,19.4987502 Z M14.0016664,5.50108315 L14.0016664,3.00149975 C14.0016664,2.85619063 13.9550075,2.73621063 13.8616897,2.64155974 C13.7683719,2.54690885 13.6483919,2.50024996 13.5017497,2.50158307 L10.5022496,2.50158307 C10.3569405,2.50158307 10.2369605,2.54824196 10.1423096,2.64155974 C10.0476587,2.73487752 10.0009998,2.85485752 10.0023329,3.00149975 L10.0023329,5.50108315 C10.0023329,5.64639227 10.0489918,5.76637227 10.1423096,5.86102316 C10.2356274,5.95567405 10.3556074,6.00233294 10.5022496,6.00099983 L13.5017497,6.00099983 C13.6470588,6.00099983 13.7670388,5.95434094 13.8616897,5.86102316 C13.9563406,5.76770538 14.0029995,5.64772538 14.0016664,5.50108315 L14.0016664,5.50108315 Z M24,12 C24,14.1769705 23.4634228,16.1846359 22.3902683,18.0229962 C21.3171138,19.8613564 19.8613564,21.3171138 18.0229962,22.3902683 C16.1846359,23.4634228 14.1769705,24 12,24 C9.8230295,24 7.81536411,23.4634228 5.97700383,22.3902683 C4.13864356,21.3171138 2.68288619,19.8613564 1.60973171,18.0229962 C0.536577237,16.1846359 1.03632456e-15,14.1769705 0,12 C-1.03632456e-15,9.8230295 0.536577237,7.81536411 1.60973171,5.97700383 C2.68288619,4.13864356 4.13864356,2.68288619 5.97700383,1.60973171 C7.81536411,0.536577237 9.8230295,1.11003802e-15 12,0 C14.1769705,-1.11003802e-15 16.1846359,0.536577237 18.0229962,1.60973171 C19.8613564,2.68288619 21.3171138,4.13864356 22.3902683,5.97700383 C23.4634228,7.81536411 24,9.8230295 24,12 L24,12 Z" id="Shape" fill="#FFFFFF" sketch:type="MSShapeGroup"></path>
            </g>
        </g>
    </g>
</svg>