<?xml version="1.0" encoding="UTF-8" standalone="no"?>
<svg width="202px" height="39px" viewBox="0 0 202 39" version="1.1" xmlns="http://www.w3.org/2000/svg" xmlns:xlink="http://www.w3.org/1999/xlink" xmlns:sketch="http://www.bohemiancoding.com/sketch/ns">
    <!-- Generator: Sketch Beta 3.4 (15138) - http://www.bohemiancoding.com/sketch -->
    <title>jhu-enterprise-logo-black</title>
    <desc>Created with Sketch Beta.</desc>
    <defs></defs>
    <g id="Working" stroke="none" stroke-width="1" fill="none" fill-rule="evenodd" sketch:type="MSPage">
        <g id="jhu-enterprise-logo-black" sketch:type="MSLayerGroup" fill="#0A0A08">
            <path d="M16.024,5.328 C16.024,2.169 15.74,1.828 14.061,1.685 L13.351,1.629 C13.179,1.515 13.236,1.003 13.407,0.918 C15.057,0.974 16.024,1.003 17.219,1.003 C18.357,1.003 19.324,0.974 20.462,0.918 C20.633,1.003 20.69,1.515 20.52,1.629 L20.093,1.685 C18.414,1.914 18.357,2.31 18.357,5.328 L18.357,15.883 C18.357,18.129 18.243,20.092 17.703,21.4 C16.764,23.678 14.744,25.498 12.098,25.498 C11.757,25.498 10.875,25.469 10.875,24.9 C10.875,24.416 11.301,23.59 11.899,23.59 C12.24,23.59 12.582,23.647 12.952,23.762 C13.351,23.875 13.748,23.961 14.147,23.961 C14.744,23.961 15.086,23.619 15.285,23.221 C15.939,21.883 16.024,17.617 16.024,16.08 L16.024,5.328" id="Fill-1" sketch:type="MSShapeGroup"></path>
            <path d="M34.931,12.531 C34.931,8.572 33.18,4.299 28.596,4.299 C26.099,4.299 22.86,6.004 22.86,11.26 C22.86,14.81 24.588,19.42 29.315,19.42 C32.196,19.42 34.931,17.26 34.931,12.531 M20.459,12.027 C20.459,7.228 24.06,3.555 29.003,3.555 C34.547,3.555 37.331,7.563 37.331,11.787 C37.331,16.635 33.636,20.162 29.003,20.162 C23.676,20.162 20.459,16.347 20.459,12.027" id="Fill-2" sketch:type="MSShapeGroup"></path>
            <path d="M42.783,12.027 C41.631,12.027 41.583,12.076 41.583,12.797 L41.583,16.179 C41.583,18.699 41.703,19.035 43.046,19.179 L43.742,19.252 C43.887,19.347 43.838,19.779 43.695,19.851 C42.399,19.802 41.583,19.779 40.646,19.779 C39.615,19.779 38.798,19.828 37.863,19.851 C37.719,19.779 37.671,19.395 37.815,19.252 L38.223,19.179 C39.566,18.94 39.615,18.699 39.615,16.179 L39.615,7.539 C39.615,5.02 39.447,4.612 38.199,4.515 L37.575,4.467 C37.43,4.371 37.479,3.94 37.622,3.867 C38.798,3.89 39.615,3.94 40.646,3.94 C41.583,3.94 42.399,3.917 43.43,3.867 C43.575,3.94 43.623,4.371 43.478,4.467 L43.022,4.515 C41.631,4.659 41.583,5.02 41.583,7.539 L41.583,10.3 C41.583,11.044 41.631,11.068 42.783,11.068 L49.647,11.068 C50.799,11.068 50.847,11.044 50.847,10.3 L50.847,7.539 C50.847,5.02 50.799,4.659 49.383,4.515 L48.927,4.467 C48.783,4.371 48.831,3.94 48.975,3.867 C50.079,3.917 50.894,3.94 51.878,3.94 C52.815,3.94 53.631,3.917 54.711,3.867 C54.854,3.94 54.903,4.371 54.759,4.467 L54.255,4.515 C52.863,4.659 52.815,5.02 52.815,7.539 L52.815,16.179 C52.815,18.699 52.863,19.011 54.255,19.179 L54.831,19.252 C54.974,19.347 54.927,19.779 54.782,19.851 C53.631,19.802 52.815,19.779 51.878,19.779 C50.894,19.779 50.031,19.802 48.975,19.851 C48.831,19.779 48.783,19.395 48.927,19.252 L49.383,19.179 C50.847,18.94 50.847,18.699 50.847,16.179 L50.847,12.797 C50.847,12.076 50.799,12.027 49.647,12.027 L42.783,12.027" id="Fill-3" sketch:type="MSShapeGroup"></path>
            <path d="M71.224,15.699 C71.224,16.42 71.224,19.275 71.296,19.898 C71.248,20.043 71.104,20.162 70.841,20.162 C70.552,19.756 69.856,18.916 67.768,16.539 L62.2,10.203 C61.552,9.459 59.92,7.491 59.416,6.965 L59.369,6.965 C59.272,7.252 59.248,7.803 59.248,8.523 L59.248,13.756 C59.248,14.883 59.272,18.004 59.68,18.722 C59.825,18.988 60.305,19.131 60.904,19.179 L61.648,19.252 C61.793,19.443 61.768,19.732 61.6,19.851 C60.52,19.803 59.68,19.779 58.793,19.779 C57.784,19.779 57.136,19.803 56.296,19.851 C56.129,19.732 56.105,19.394 56.248,19.252 L56.896,19.179 C57.448,19.107 57.832,18.963 57.953,18.699 C58.288,17.836 58.265,14.908 58.265,13.756 L58.265,6.82 C58.265,6.147 58.241,5.642 57.736,5.092 C57.4,4.756 56.825,4.587 56.248,4.515 L55.84,4.468 C55.696,4.324 55.696,3.965 55.889,3.867 C56.896,3.94 58.169,3.94 58.6,3.94 C58.984,3.94 59.392,3.916 59.704,3.867 C60.184,5.092 63.016,8.26 63.808,9.148 L66.136,11.763 C67.792,13.611 68.968,14.955 70.096,16.107 L70.144,16.107 C70.24,15.988 70.24,15.603 70.24,15.099 L70.24,9.963 C70.24,8.835 70.216,5.716 69.761,4.995 C69.616,4.779 69.232,4.635 68.272,4.515 L67.864,4.468 C67.696,4.324 67.72,3.94 67.912,3.867 C69.016,3.916 69.833,3.94 70.744,3.94 C71.776,3.94 72.399,3.916 73.216,3.867 C73.408,3.988 73.408,4.324 73.265,4.468 L72.929,4.515 C72.161,4.635 71.68,4.828 71.584,5.019 C71.176,5.883 71.224,8.859 71.224,9.963 L71.224,15.699" id="Fill-4" sketch:type="MSShapeGroup"></path>
            <path d="M77.568,20.162 C75.551,20.162 74.28,19.539 73.824,19.275 C73.536,18.746 73.224,17.043 73.175,15.916 C73.296,15.746 73.656,15.699 73.752,15.844 C74.111,17.066 75.095,19.42 77.879,19.42 C79.896,19.42 80.88,18.099 80.88,16.66 C80.88,15.603 80.664,14.428 78.911,13.299 L76.631,11.81 C75.432,11.019 74.04,9.65 74.04,7.683 C74.04,5.403 75.816,3.556 78.936,3.556 C79.68,3.556 80.544,3.7 81.168,3.867 C81.48,3.965 81.816,4.012 82.007,4.012 C82.223,4.587 82.44,5.932 82.44,6.939 C82.344,7.084 81.959,7.155 81.839,7.012 C81.527,5.859 80.88,4.299 78.575,4.299 C76.223,4.299 75.719,5.859 75.719,6.965 C75.719,8.355 76.872,9.363 77.76,9.916 L79.68,11.115 C81.193,12.051 82.68,13.443 82.68,15.723 C82.68,18.363 80.688,20.162 77.568,20.162" id="Fill-5" sketch:type="MSShapeGroup"></path>
            <path d="M96.924,10.592 C95.559,10.592 95.502,10.647 95.502,11.5 L95.502,15.512 C95.502,18.498 95.644,18.897 97.237,19.069 L98.063,19.155 C98.233,19.268 98.177,19.78 98.005,19.863 C96.469,19.807 95.502,19.78 94.393,19.78 C93.169,19.78 92.201,19.836 91.092,19.863 C90.921,19.78 90.864,19.324 91.035,19.155 L91.519,19.069 C93.111,18.783 93.169,18.498 93.169,15.512 L93.169,5.27 C93.169,2.283 92.97,1.799 91.491,1.686 L90.751,1.629 C90.58,1.516 90.637,1.003 90.808,0.918 C92.201,0.946 93.169,1.003 94.393,1.003 C95.502,1.003 96.469,0.975 97.693,0.918 C97.863,1.003 97.92,1.516 97.748,1.629 L97.208,1.686 C95.559,1.858 95.502,2.283 95.502,5.27 L95.502,8.542 C95.502,9.424 95.559,9.451 96.924,9.451 L105.061,9.451 C106.426,9.451 106.482,9.424 106.482,8.542 L106.482,5.27 C106.482,2.283 106.426,1.858 104.747,1.686 L104.206,1.629 C104.036,1.516 104.093,1.003 104.264,0.918 C105.57,0.975 106.54,1.003 107.706,1.003 C108.815,1.003 109.783,0.975 111.063,0.918 C111.233,1.003 111.291,1.516 111.119,1.629 L110.522,1.686 C108.873,1.858 108.815,2.283 108.815,5.27 L108.815,15.512 C108.815,18.498 108.873,18.869 110.522,19.069 L111.205,19.155 C111.376,19.268 111.319,19.78 111.147,19.863 C109.783,19.807 108.815,19.78 107.706,19.78 C106.54,19.78 105.516,19.807 104.264,19.863 C104.093,19.78 104.036,19.324 104.206,19.155 L104.747,19.069 C106.482,18.783 106.482,18.498 106.482,15.512 L106.482,11.5 C106.482,10.647 106.426,10.592 105.061,10.592 L96.924,10.592" id="Fill-6" sketch:type="MSShapeGroup"></path>
            <path d="M125.497,12.531 C125.497,8.572 123.746,4.299 119.161,4.299 C116.666,4.299 113.426,6.004 113.426,11.26 C113.426,14.81 115.154,19.42 119.882,19.42 C122.763,19.42 125.497,17.26 125.497,12.531 M111.025,12.027 C111.025,7.228 114.627,3.555 119.569,3.555 C125.114,3.555 127.897,7.563 127.897,11.787 C127.897,16.635 124.202,20.162 119.569,20.162 C114.242,20.162 111.025,16.347 111.025,12.027" id="Fill-7" sketch:type="MSShapeGroup"></path>
            <path d="M132.241,16.18 C132.241,18.7 132.289,19.012 133.825,19.18 L134.474,19.252 C134.617,19.371 134.57,19.78 134.425,19.852 C133.058,19.803 132.266,19.78 131.306,19.78 C130.297,19.78 129.434,19.803 128.378,19.852 C128.233,19.78 128.186,19.395 128.33,19.252 L128.834,19.18 C130.226,18.989 130.273,18.7 130.273,16.18 L130.273,7.325 C130.273,5.284 130.226,4.876 129.146,4.755 L128.281,4.659 C128.113,4.516 128.137,4.156 128.33,4.06 C129.602,3.891 131.09,3.867 133.081,3.867 C135.073,3.867 136.562,4.13 137.689,4.828 C138.793,5.523 139.609,6.772 139.609,8.427 C139.609,10.635 138.242,11.741 137.209,12.244 C136.153,12.748 134.882,12.962 133.897,12.962 C133.729,12.893 133.729,12.532 133.873,12.484 C136.465,12.003 137.401,10.539 137.401,8.452 C137.401,6.123 136.033,4.613 133.538,4.613 C132.266,4.613 132.241,4.707 132.241,5.477 L132.241,16.18" id="Fill-8" sketch:type="MSShapeGroup"></path>
            <path d="M142.228,7.539 C142.228,5.019 142.179,4.635 140.787,4.516 L140.187,4.468 C140.043,4.371 140.092,3.939 140.234,3.867 C141.41,3.916 142.179,3.939 143.258,3.939 C144.194,3.939 145.011,3.916 146.043,3.867 C146.187,3.939 146.235,4.371 146.09,4.468 L145.635,4.516 C144.242,4.659 144.194,5.019 144.194,7.539 L144.194,10.301 C144.194,10.756 144.242,11.211 144.508,11.211 C144.723,11.211 145.011,11.068 145.179,10.947 C145.515,10.66 146.139,10.035 146.403,9.795 L148.994,7.228 C149.45,6.795 150.627,5.571 150.866,5.236 C150.987,5.067 151.035,4.947 151.035,4.851 C151.035,4.756 150.939,4.684 150.627,4.612 L149.979,4.468 C149.811,4.299 149.835,3.988 150.026,3.867 C150.866,3.916 151.826,3.939 152.666,3.939 C153.507,3.939 154.322,3.916 155.041,3.867 C155.211,3.988 155.234,4.324 155.091,4.468 C154.467,4.516 153.531,4.756 152.859,5.14 C152.188,5.523 150.842,6.651 149.498,7.924 L147.339,9.963 C147.003,10.301 146.786,10.516 146.786,10.707 C146.786,10.877 146.931,11.068 147.242,11.451 C149.522,14.066 151.37,16.227 153.243,18.195 C153.819,18.771 154.256,19.084 155.071,19.18 L155.534,19.252 C155.703,19.371 155.654,19.779 155.485,19.852 C154.861,19.803 154.203,19.779 153.075,19.779 C152.092,19.779 151.249,19.803 150.146,19.852 C149.979,19.803 149.907,19.394 150.051,19.252 L150.603,19.154 C150.939,19.107 151.179,19.035 151.179,18.916 C151.179,18.771 151.011,18.58 150.842,18.363 C150.386,17.787 149.763,17.139 148.851,16.107 L146.931,13.947 C145.563,12.412 145.179,11.932 144.603,11.932 C144.242,11.932 144.194,12.244 144.194,13.084 L144.194,16.18 C144.194,18.699 144.242,19.035 145.587,19.18 L146.235,19.252 C146.378,19.348 146.331,19.779 146.187,19.852 C145.011,19.803 144.194,19.779 143.258,19.779 C142.274,19.779 141.458,19.803 140.475,19.852 C140.331,19.779 140.282,19.42 140.427,19.252 L140.907,19.18 C142.179,18.988 142.228,18.699 142.228,16.18 L142.228,7.539" id="Fill-9" sketch:type="MSShapeGroup"></path>
            <path d="M158.7,7.588 C158.7,5.044 158.652,4.635 157.235,4.516 L156.637,4.468 C156.492,4.371 156.54,3.94 156.684,3.867 C157.884,3.916 158.7,3.94 159.708,3.94 C160.668,3.94 161.484,3.916 162.684,3.867 C162.828,3.94 162.876,4.371 162.732,4.468 L162.132,4.516 C160.716,4.635 160.668,5.044 160.668,7.588 L160.668,16.131 C160.668,18.676 160.716,19.012 162.132,19.18 L162.732,19.252 C162.876,19.348 162.828,19.779 162.684,19.852 C161.484,19.803 160.668,19.779 159.708,19.779 C158.7,19.779 157.976,19.803 156.776,19.852 C156.632,19.779 156.584,19.395 156.729,19.252 L157.235,19.18 C158.652,19.012 158.7,18.676 158.7,16.131 L158.7,7.588" id="Fill-10" sketch:type="MSShapeGroup"></path>
            <path d="M179.46,15.699 C179.46,16.42 179.46,19.275 179.533,19.898 C179.485,20.043 179.341,20.162 179.077,20.162 C178.789,19.756 178.093,18.916 176.005,16.539 L170.437,10.203 C169.789,9.459 168.156,7.491 167.653,6.965 L167.606,6.965 C167.509,7.252 167.484,7.803 167.484,8.523 L167.484,13.756 C167.484,14.883 167.509,18.004 167.917,18.722 C168.062,18.988 168.541,19.131 169.141,19.179 L169.885,19.252 C170.028,19.443 170.004,19.732 169.837,19.851 C168.757,19.803 167.917,19.779 167.029,19.779 C166.022,19.779 165.373,19.803 164.534,19.851 C164.365,19.732 164.341,19.394 164.485,19.252 L165.134,19.179 C165.685,19.107 166.069,18.963 166.189,18.699 C166.525,17.836 166.501,14.908 166.501,13.756 L166.501,6.82 C166.501,6.147 166.477,5.642 165.973,5.092 C165.637,4.756 165.061,4.587 164.485,4.515 L164.077,4.468 C163.933,4.324 163.933,3.965 164.126,3.867 C165.134,3.94 166.405,3.94 166.837,3.94 C167.221,3.94 167.629,3.916 167.941,3.867 C168.422,5.092 171.253,8.26 172.044,9.148 L174.373,11.763 C176.029,13.611 177.204,14.955 178.333,16.107 L178.381,16.107 C178.477,15.988 178.477,15.603 178.477,15.099 L178.477,9.963 C178.477,8.835 178.453,5.716 177.997,4.995 C177.853,4.779 177.47,4.635 176.51,4.515 L176.102,4.468 C175.933,4.324 175.957,3.94 176.148,3.867 C177.253,3.916 178.068,3.94 178.981,3.94 C180.014,3.94 180.637,3.916 181.452,3.867 C181.645,3.988 181.645,4.324 181.501,4.468 L181.165,4.515 C180.397,4.635 179.917,4.828 179.82,5.019 C179.412,5.883 179.46,8.859 179.46,9.963 L179.46,15.699" id="Fill-11" sketch:type="MSShapeGroup"></path>
            <path d="M185.764,20.162 C183.747,20.162 182.476,19.539 182.019,19.275 C181.731,18.746 181.419,17.043 181.37,15.916 C181.492,15.746 181.852,15.699 181.946,15.844 C182.307,17.066 183.291,19.42 186.076,19.42 C188.091,19.42 189.076,18.099 189.076,16.66 C189.076,15.603 188.858,14.428 187.106,13.299 L184.828,11.81 C183.627,11.019 182.234,9.65 182.234,7.683 C182.234,5.403 184.011,3.556 187.132,3.556 C187.875,3.556 188.738,3.7 189.363,3.867 C189.676,3.965 190.011,4.012 190.202,4.012 C190.419,4.587 190.635,5.932 190.635,6.939 C190.538,7.084 190.155,7.155 190.035,7.012 C189.723,5.859 189.076,4.299 186.771,4.299 C184.419,4.299 183.915,5.859 183.915,6.965 C183.915,8.355 185.067,9.363 185.954,9.916 L187.875,11.115 C189.387,12.051 190.875,13.443 190.875,15.723 C190.875,18.363 188.883,20.162 185.764,20.162" id="Fill-12" sketch:type="MSShapeGroup"></path>
            <path d="M7.737,33.622 C7.737,32.854 7.713,31.427 7.502,31.055 C7.414,30.905 7.191,30.819 6.881,30.794 L6.571,30.77 C6.496,30.683 6.521,30.522 6.595,30.472 C7.067,30.496 7.526,30.509 8.009,30.509 C8.531,30.509 8.866,30.496 9.312,30.472 C9.412,30.533 9.399,30.694 9.338,30.77 L9.039,30.794 C8.729,30.819 8.494,30.931 8.42,31.092 C8.246,31.501 8.246,32.928 8.246,33.622 L8.246,35.024 C8.246,36.104 8.072,37.245 7.377,37.989 C6.843,38.572 5.925,38.895 5.008,38.895 C4.152,38.895 3.296,38.733 2.687,38.213 C2.031,37.667 1.72,36.761 1.72,35.285 L1.72,32.357 C1.72,31.067 1.695,30.856 0.976,30.794 L0.666,30.77 C0.591,30.72 0.617,30.509 0.691,30.472 C1.31,30.496 1.732,30.509 2.229,30.509 C2.738,30.509 3.146,30.496 3.755,30.472 C3.83,30.509 3.854,30.72 3.779,30.77 L3.482,30.794 C2.762,30.856 2.738,31.067 2.738,32.357 L2.738,35.037 C2.738,37.034 3.357,38.349 5.256,38.349 C7.054,38.349 7.737,36.936 7.737,35.049 L7.737,33.622" id="Fill-13" sketch:type="MSShapeGroup"></path>
            <path d="M18.364,36.587 C18.364,36.96 18.364,38.436 18.401,38.759 C18.377,38.833 18.302,38.895 18.166,38.895 C18.016,38.684 17.656,38.25 16.578,37.022 L13.699,33.746 C13.365,33.362 12.521,32.345 12.26,32.072 L12.236,32.072 C12.185,32.221 12.174,32.506 12.174,32.878 L12.174,35.583 C12.174,36.166 12.185,37.778 12.396,38.15 C12.471,38.287 12.719,38.361 13.029,38.386 L13.414,38.424 C13.488,38.523 13.476,38.672 13.389,38.732 C12.831,38.709 12.396,38.696 11.937,38.696 C11.418,38.696 11.082,38.709 10.648,38.732 C10.56,38.672 10.549,38.498 10.623,38.424 L10.958,38.386 C11.243,38.349 11.441,38.273 11.504,38.138 C11.677,37.69 11.665,36.178 11.665,35.583 L11.665,31.997 C11.665,31.65 11.652,31.39 11.392,31.105 C11.218,30.931 10.921,30.844 10.623,30.807 L10.412,30.781 C10.338,30.707 10.338,30.522 10.438,30.472 C10.958,30.509 11.615,30.509 11.839,30.509 C12.037,30.509 12.248,30.496 12.41,30.472 C12.658,31.105 14.121,32.741 14.531,33.201 L15.734,34.553 C16.59,35.508 17.197,36.203 17.781,36.798 L17.805,36.798 C17.855,36.736 17.855,36.538 17.855,36.277 L17.855,33.622 C17.855,33.039 17.843,31.427 17.607,31.055 C17.533,30.943 17.335,30.868 16.838,30.807 L16.627,30.781 C16.541,30.707 16.552,30.509 16.652,30.472 C17.222,30.496 17.645,30.509 18.115,30.509 C18.649,30.509 18.971,30.496 19.393,30.472 C19.493,30.533 19.493,30.707 19.419,30.781 L19.244,30.807 C18.847,30.868 18.599,30.968 18.551,31.067 C18.34,31.514 18.364,33.052 18.364,33.622 L18.364,36.587" id="Fill-14" sketch:type="MSShapeGroup"></path>
            <path d="M22.02,32.395 C22.02,31.079 21.995,30.868 21.262,30.807 L20.953,30.781 C20.877,30.732 20.902,30.509 20.977,30.472 C21.598,30.496 22.02,30.509 22.54,30.509 C23.037,30.509 23.457,30.496 24.079,30.472 C24.152,30.509 24.178,30.732 24.104,30.781 L23.793,30.807 C23.061,30.868 23.037,31.079 23.037,32.395 L23.037,36.811 C23.037,38.126 23.061,38.3 23.793,38.386 L24.104,38.424 C24.178,38.473 24.152,38.696 24.079,38.733 C23.457,38.709 23.037,38.696 22.54,38.696 C22.02,38.696 21.598,38.709 20.977,38.733 C20.902,38.696 20.877,38.498 20.953,38.424 L21.262,38.386 C21.995,38.3 22.02,38.126 22.02,36.811 L22.02,32.395" id="Fill-15" sketch:type="MSShapeGroup"></path>
            <path d="M26.482,31.823 C26.197,31.129 26.011,30.868 25.479,30.807 L25.253,30.781 C25.169,30.707 25.179,30.533 25.279,30.472 C25.638,30.496 26.037,30.509 26.569,30.509 C27.115,30.509 27.549,30.496 28.07,30.472 C28.157,30.522 28.182,30.707 28.095,30.781 L27.909,30.807 C27.437,30.868 27.338,30.943 27.326,31.042 C27.352,31.166 27.562,31.836 27.947,32.779 C28.518,34.218 29.087,35.645 29.709,37.059 C30.092,36.24 30.613,34.962 30.898,34.305 C31.258,33.461 31.841,32.06 32.052,31.526 C32.152,31.266 32.165,31.129 32.165,31.042 C32.165,30.955 32.041,30.856 31.605,30.807 L31.382,30.781 C31.295,30.707 31.32,30.522 31.408,30.472 C31.754,30.496 32.227,30.509 32.697,30.509 C33.107,30.509 33.492,30.496 33.901,30.472 C33.988,30.522 33.988,30.719 33.925,30.781 L33.553,30.807 C33.255,30.831 33.07,30.981 32.908,31.24 C32.562,31.823 32.079,32.828 31.52,34.094 L30.85,35.62 C30.354,36.76 29.77,38.2 29.559,38.857 C29.521,38.883 29.472,38.895 29.422,38.895 C29.361,38.895 29.298,38.883 29.236,38.857 C29.1,38.337 28.877,37.729 28.666,37.208 L26.482,31.823" id="Fill-16" sketch:type="MSShapeGroup"></path>
            <path d="M35.832,32.369 C35.832,31.079 35.808,30.894 35.076,30.807 L34.877,30.781 C34.803,30.732 34.828,30.509 34.902,30.472 C35.436,30.496 35.857,30.509 36.365,30.509 L38.698,30.509 C39.492,30.509 40.225,30.509 40.373,30.472 C40.447,30.682 40.521,31.575 40.571,32.121 C40.521,32.196 40.323,32.221 40.262,32.147 C40.075,31.564 39.963,31.129 39.318,30.968 C39.059,30.905 38.661,30.894 38.115,30.894 L37.223,30.894 C36.85,30.894 36.85,30.918 36.85,31.39 L36.85,33.87 C36.85,34.218 36.887,34.218 37.26,34.218 L37.978,34.218 C38.5,34.218 38.885,34.193 39.033,34.144 C39.182,34.094 39.27,34.02 39.331,33.709 L39.43,33.201 C39.492,33.126 39.703,33.126 39.752,33.213 C39.752,33.511 39.703,33.995 39.703,34.466 C39.703,34.913 39.752,35.384 39.752,35.657 C39.703,35.744 39.492,35.744 39.43,35.669 L39.318,35.186 C39.27,34.962 39.182,34.776 38.934,34.714 C38.76,34.664 38.463,34.652 37.978,34.652 L37.26,34.652 C36.887,34.652 36.85,34.664 36.85,34.987 L36.85,36.736 C36.85,37.394 36.887,37.815 37.086,38.026 C37.234,38.175 37.494,38.312 38.586,38.312 C39.541,38.312 39.901,38.262 40.174,38.126 C40.398,38.002 40.732,37.567 41.055,36.922 C41.143,36.86 41.316,36.898 41.365,37.009 C41.278,37.443 40.969,38.398 40.807,38.733 C39.69,38.709 38.586,38.696 37.482,38.696 L36.365,38.696 C35.832,38.696 35.41,38.709 34.679,38.733 C34.604,38.696 34.58,38.498 34.654,38.424 L35.063,38.386 C35.77,38.324 35.832,38.138 35.832,36.836 L35.832,32.369" id="Fill-17" sketch:type="MSShapeGroup"></path>
            <path d="M44.711,34.156 C44.711,34.379 44.711,34.516 44.749,34.565 C44.786,34.603 44.973,34.627 45.606,34.627 C46.051,34.627 46.523,34.578 46.883,34.305 C47.217,34.044 47.503,33.61 47.503,32.767 C47.503,31.786 46.895,30.856 45.518,30.856 C44.749,30.856 44.711,30.905 44.711,31.253 L44.711,34.156 L44.711,34.156 Z M43.694,32.382 C43.694,31.203 43.657,30.992 43.149,30.931 L42.752,30.881 C42.664,30.819 42.664,30.62 42.764,30.57 C43.459,30.509 44.315,30.472 45.53,30.472 C46.299,30.472 47.031,30.533 47.602,30.843 C48.197,31.153 48.632,31.712 48.632,32.58 C48.632,33.759 47.701,34.404 47.081,34.652 C47.02,34.727 47.081,34.851 47.143,34.95 C48.135,36.55 48.793,37.543 49.637,38.25 C49.848,38.436 50.158,38.572 50.492,38.597 C50.555,38.622 50.566,38.72 50.505,38.771 C50.393,38.808 50.195,38.833 49.959,38.833 C48.904,38.833 48.272,38.523 47.391,37.27 C47.068,36.811 46.561,35.955 46.176,35.397 C45.989,35.124 45.791,34.999 45.295,34.999 C44.736,34.999 44.711,35.011 44.711,35.273 L44.711,36.836 C44.711,38.137 44.736,38.287 45.456,38.385 L45.717,38.424 C45.791,38.485 45.766,38.696 45.691,38.733 C45.133,38.709 44.711,38.696 44.215,38.696 C43.694,38.696 43.248,38.709 42.664,38.733 C42.59,38.696 42.565,38.51 42.64,38.424 L42.95,38.385 C43.67,38.3 43.694,38.137 43.694,36.836 L43.694,32.382 L43.694,32.382 Z" id="Fill-18" sketch:type="MSShapeGroup"></path>
            <path d="M53.504,38.895 C52.461,38.895 51.804,38.572 51.568,38.436 C51.42,38.163 51.258,37.282 51.233,36.699 C51.295,36.612 51.482,36.587 51.531,36.662 C51.717,37.295 52.226,38.51 53.664,38.51 C54.707,38.51 55.215,37.828 55.215,37.084 C55.215,36.538 55.104,35.93 54.198,35.347 L53.02,34.578 C52.4,34.168 51.68,33.461 51.68,32.444 C51.68,31.266 52.598,30.311 54.211,30.311 C54.596,30.311 55.041,30.385 55.364,30.472 C55.525,30.522 55.699,30.546 55.799,30.546 C55.91,30.844 56.022,31.538 56.022,32.06 C55.973,32.134 55.774,32.171 55.711,32.097 C55.551,31.501 55.215,30.694 54.025,30.694 C52.809,30.694 52.549,31.501 52.549,32.072 C52.549,32.79 53.144,33.313 53.603,33.598 L54.596,34.218 C55.377,34.702 56.147,35.421 56.147,36.6 C56.147,37.965 55.116,38.895 53.504,38.895" id="Fill-19" sketch:type="MSShapeGroup"></path>
            <path d="M58.996,32.395 C58.996,31.079 58.971,30.868 58.238,30.807 L57.929,30.781 C57.854,30.732 57.879,30.509 57.953,30.472 C58.574,30.496 58.996,30.509 59.517,30.509 C60.013,30.509 60.434,30.496 61.055,30.472 C61.129,30.509 61.154,30.732 61.08,30.781 L60.769,30.807 C60.037,30.868 60.013,31.079 60.013,32.395 L60.013,36.811 C60.013,38.126 60.037,38.3 60.769,38.386 L61.08,38.424 C61.154,38.473 61.129,38.696 61.055,38.733 C60.434,38.709 60.013,38.696 59.517,38.696 C58.996,38.696 58.574,38.709 57.953,38.733 C57.879,38.696 57.854,38.498 57.929,38.424 L58.238,38.386 C58.971,38.3 58.996,38.126 58.996,36.811 L58.996,32.395" id="Fill-20" sketch:type="MSShapeGroup"></path>
            <path d="M66.785,36.836 C66.785,38.138 66.808,38.324 67.529,38.386 L67.926,38.424 C68,38.473 67.974,38.696 67.9,38.732 C67.193,38.709 66.771,38.696 66.275,38.696 C65.779,38.696 65.346,38.709 64.551,38.732 C64.476,38.696 64.452,38.485 64.551,38.424 L64.998,38.386 C65.705,38.324 65.767,38.138 65.767,36.836 L65.767,31.29 C65.767,30.905 65.767,30.894 65.394,30.894 L64.713,30.894 C64.18,30.894 63.497,30.918 63.187,31.203 C62.889,31.477 62.765,31.749 62.629,32.06 C62.529,32.134 62.355,32.072 62.306,31.973 C62.504,31.414 62.69,30.62 62.777,30.124 C62.814,30.1 62.976,30.087 63.014,30.124 C63.088,30.522 63.497,30.509 64.068,30.509 L69.092,30.509 C69.762,30.509 69.873,30.484 70.059,30.161 C70.121,30.137 70.258,30.148 70.283,30.198 C70.146,30.707 70.059,31.712 70.097,32.084 C70.047,32.184 69.836,32.184 69.773,32.109 C69.736,31.799 69.65,31.34 69.464,31.203 C69.179,30.992 68.707,30.894 68.025,30.894 L67.144,30.894 C66.771,30.894 66.785,30.905 66.785,31.315 L66.785,36.836" id="Fill-21" sketch:type="MSShapeGroup"></path>
            <path d="M75.191,36.811 C75.191,38.138 75.266,38.337 75.936,38.386 L76.406,38.424 C76.481,38.497 76.458,38.696 76.382,38.733 C75.613,38.709 75.191,38.696 74.695,38.696 C74.173,38.696 73.728,38.709 73.07,38.733 C72.997,38.696 72.97,38.497 73.045,38.424 L73.429,38.386 C74.148,38.312 74.173,38.138 74.173,36.811 L74.173,36.178 C74.173,35.496 74.136,35.334 73.777,34.64 L72.313,31.786 C71.891,30.968 71.706,30.905 71.333,30.844 L70.986,30.781 C70.912,30.694 70.923,30.522 71.01,30.472 C71.408,30.496 71.854,30.509 72.449,30.509 C73.02,30.509 73.466,30.496 73.777,30.472 C73.888,30.509 73.888,30.706 73.814,30.781 L73.652,30.807 C73.218,30.868 73.131,30.931 73.131,31.029 C73.131,31.153 73.456,31.861 73.517,31.985 C73.976,32.903 74.435,33.883 74.918,34.739 C75.302,34.081 75.712,33.362 76.084,32.643 C76.432,31.997 76.891,31.153 76.891,31.005 C76.891,30.931 76.668,30.844 76.37,30.807 L76.146,30.781 C76.06,30.694 76.072,30.522 76.171,30.472 C76.617,30.496 76.978,30.509 77.362,30.509 C77.747,30.509 78.093,30.496 78.516,30.472 C78.615,30.533 78.627,30.706 78.542,30.781 L78.193,30.844 C77.548,30.955 77.175,31.737 76.555,32.804 L75.774,34.156 C75.229,35.099 75.191,35.21 75.191,36.165 L75.191,36.811" id="Fill-22" sketch:type="MSShapeGroup"></path>
            <path d="M84.788,33.896 C84.912,34.329 85.234,34.69 85.73,34.69 C86.053,34.69 86.326,34.491 86.326,34.156 C86.326,33.846 86.103,33.498 85.631,33.498 C85.185,33.498 84.85,33.809 84.788,33.896 M87.294,31.29 C87.294,31.564 87.083,31.786 86.822,31.786 C86.6,31.786 86.525,31.638 86.475,31.414 C86.437,31.253 86.276,31.055 86.028,31.055 C85.793,31.055 85.519,31.166 85.223,31.451 C84.713,31.936 84.601,32.617 84.601,33.027 C84.601,33.275 84.627,33.461 84.676,33.561 C84.838,33.399 85.223,33.126 85.693,33.126 C86.512,33.126 86.773,33.709 86.773,34.156 C86.773,34.814 86.252,35.186 85.693,35.186 C85.073,35.186 84.639,34.789 84.453,34.367 C84.279,34.615 84.131,35.012 84.131,35.632 C84.131,36.712 84.961,38.089 86.971,38.089 C87.728,38.089 88.423,37.84 88.919,37.456 C89.502,37.009 90.072,36.116 90.072,35.161 C90.072,34.367 89.874,33.945 89.8,33.858 C89.725,33.759 89.476,33.685 88.98,33.685 C88.51,33.685 88.062,33.957 88.062,34.528 C88.062,34.764 88.225,34.874 88.31,34.874 C88.398,34.874 88.447,34.826 88.51,34.714 C88.584,34.603 88.658,34.479 88.845,34.479 C89.068,34.479 89.228,34.652 89.228,34.874 C89.228,35.21 88.894,35.384 88.559,35.384 C88.001,35.384 87.666,34.938 87.666,34.491 C87.666,34.231 87.753,33.933 87.988,33.672 C88.336,33.263 88.98,33.163 89.328,33.163 C89.576,33.163 89.824,33.176 90.346,33.176 C90.941,33.176 92.193,33.163 92.193,31.861 C92.193,31.116 91.549,30.856 91.238,30.856 C91.053,30.856 90.99,31.029 90.99,31.079 C90.99,31.142 91.016,31.191 91.115,31.266 C91.214,31.34 91.375,31.451 91.375,31.675 C91.375,32.047 91.101,32.196 90.842,32.196 C90.494,32.196 90.234,31.91 90.234,31.551 C90.234,31.092 90.581,30.559 91.312,30.559 C91.996,30.559 92.652,31.166 92.652,32.121 C92.652,32.68 92.455,33.027 92.144,33.325 C91.549,33.883 90.494,33.834 90.346,33.834 C90.209,33.834 90.184,33.883 90.234,34.044 C90.271,34.156 90.568,34.764 90.568,35.496 C90.568,37.146 89.117,38.87 86.922,38.87 C84.329,38.87 83.584,37.071 83.584,35.856 C83.584,35.148 83.846,34.454 84.279,33.933 C84.217,33.734 84.168,33.474 84.168,33.089 C84.168,32.456 84.391,31.786 84.788,31.303 C85.209,30.781 85.83,30.522 86.301,30.522 C86.934,30.522 87.294,30.894 87.294,31.29" id="Fill-23" sketch:type="MSShapeGroup"></path>
            <path d="M99.471,34.69 C98.875,34.69 98.85,34.714 98.85,35.086 L98.85,36.836 C98.85,38.138 98.912,38.312 99.606,38.386 L99.967,38.424 C100.041,38.473 100.016,38.696 99.942,38.733 C99.271,38.71 98.85,38.696 98.366,38.696 C97.832,38.696 97.41,38.721 96.927,38.733 C96.853,38.696 96.828,38.498 96.903,38.424 L97.114,38.386 C97.808,38.262 97.832,38.138 97.832,36.836 L97.832,32.369 C97.832,31.067 97.746,30.856 97.101,30.807 L96.778,30.781 C96.703,30.732 96.729,30.509 96.803,30.472 C97.41,30.484 97.832,30.509 98.366,30.509 C98.85,30.509 99.271,30.496 99.805,30.472 C99.879,30.509 99.905,30.732 99.83,30.781 L99.594,30.807 C98.875,30.881 98.85,31.067 98.85,32.369 L98.85,33.796 C98.85,34.181 98.875,34.193 99.471,34.193 L103.018,34.193 C103.613,34.193 103.639,34.181 103.639,33.796 L103.639,32.369 C103.639,31.067 103.613,30.881 102.881,30.807 L102.646,30.781 C102.571,30.732 102.596,30.509 102.67,30.472 C103.242,30.496 103.663,30.509 104.172,30.509 C104.655,30.509 105.077,30.496 105.636,30.472 C105.71,30.509 105.734,30.732 105.66,30.781 L105.4,30.807 C104.68,30.881 104.655,31.067 104.655,32.369 L104.655,36.836 C104.655,38.138 104.68,38.3 105.4,38.386 L105.697,38.424 C105.771,38.473 105.747,38.696 105.673,38.733 C105.077,38.71 104.655,38.696 104.172,38.696 C103.663,38.696 103.217,38.71 102.67,38.733 C102.596,38.696 102.571,38.498 102.646,38.424 L102.881,38.386 C103.639,38.262 103.639,38.138 103.639,36.836 L103.639,35.086 C103.639,34.714 103.613,34.69 103.018,34.69 L99.471,34.69" id="Fill-24" sketch:type="MSShapeGroup"></path>
            <path d="M107.951,32.369 C107.951,31.079 107.926,30.894 107.193,30.807 L106.996,30.781 C106.921,30.732 106.945,30.509 107.021,30.472 C107.555,30.496 107.976,30.509 108.484,30.509 L110.816,30.509 C111.61,30.509 112.342,30.509 112.491,30.472 C112.565,30.682 112.641,31.575 112.689,32.121 C112.641,32.196 112.441,32.221 112.379,32.147 C112.193,31.564 112.082,31.129 111.437,30.968 C111.176,30.905 110.779,30.894 110.233,30.894 L109.34,30.894 C108.968,30.894 108.968,30.918 108.968,31.39 L108.968,33.87 C108.968,34.218 109.006,34.218 109.377,34.218 L110.098,34.218 C110.617,34.218 111.002,34.193 111.151,34.144 C111.301,34.094 111.387,34.02 111.449,33.709 L111.549,33.201 C111.61,33.126 111.821,33.126 111.871,33.213 C111.871,33.511 111.821,33.995 111.821,34.466 C111.821,34.913 111.871,35.384 111.871,35.657 C111.821,35.744 111.61,35.744 111.549,35.669 L111.437,35.186 C111.387,34.962 111.301,34.776 111.053,34.714 C110.879,34.664 110.58,34.652 110.098,34.652 L109.377,34.652 C109.006,34.652 108.968,34.664 108.968,34.987 L108.968,36.736 C108.968,37.394 109.006,37.815 109.203,38.026 C109.353,38.175 109.613,38.312 110.705,38.312 C111.66,38.312 112.02,38.262 112.293,38.126 C112.516,38.002 112.851,37.567 113.174,36.922 C113.26,36.86 113.434,36.898 113.483,37.009 C113.396,37.443 113.086,38.398 112.926,38.733 C111.809,38.709 110.705,38.696 109.601,38.696 L108.484,38.696 C107.951,38.696 107.529,38.709 106.797,38.733 C106.723,38.696 106.697,38.498 106.771,38.424 L107.182,38.386 C107.89,38.324 107.951,38.138 107.951,36.836 L107.951,32.369" id="Fill-25" sketch:type="MSShapeGroup"></path>
            <path d="M117.064,34.714 C116.966,34.999 116.979,35.012 117.325,35.012 L118.852,35.012 C119.211,35.012 119.236,34.962 119.124,34.627 L118.454,32.606 C118.355,32.308 118.244,31.973 118.169,31.823 L118.145,31.823 C118.107,31.886 117.982,32.184 117.846,32.556 L117.064,34.714 L117.064,34.714 Z M119.521,35.818 C119.434,35.545 119.385,35.508 119.013,35.508 L117.139,35.508 C116.829,35.508 116.755,35.545 116.669,35.806 L116.234,37.109 C116.048,37.667 115.961,38.002 115.961,38.138 C115.961,38.287 116.023,38.361 116.32,38.386 L116.73,38.424 C116.816,38.485 116.816,38.684 116.705,38.734 C116.383,38.709 115.998,38.709 115.415,38.696 C115.006,38.696 114.559,38.721 114.225,38.734 C114.149,38.684 114.125,38.485 114.199,38.424 L114.608,38.386 C114.906,38.361 115.18,38.225 115.354,37.778 C115.576,37.208 115.924,36.401 116.445,35.012 L117.711,31.662 C117.884,31.216 117.959,30.981 117.921,30.781 C118.219,30.694 118.43,30.472 118.566,30.311 C118.641,30.311 118.727,30.335 118.752,30.422 C118.913,30.968 119.111,31.538 119.298,32.084 L120.998,37.071 C121.357,38.138 121.519,38.324 122.052,38.386 L122.387,38.424 C122.474,38.485 122.449,38.684 122.387,38.734 C121.879,38.709 121.443,38.696 120.886,38.696 C120.291,38.696 119.818,38.721 119.46,38.734 C119.359,38.684 119.348,38.485 119.434,38.424 L119.794,38.386 C120.055,38.361 120.229,38.287 120.229,38.163 C120.229,38.027 120.166,37.803 120.066,37.505 L119.521,35.818 L119.521,35.818 Z" id="Fill-26" sketch:type="MSShapeGroup"></path>
            <path d="M124.405,32.369 C124.405,31.067 124.381,30.868 123.6,30.807 L123.289,30.781 C123.215,30.732 123.239,30.509 123.313,30.472 C124.008,30.496 124.43,30.509 124.927,30.509 C125.41,30.509 125.832,30.496 126.452,30.472 C126.526,30.509 126.552,30.732 126.477,30.781 L126.18,30.807 C125.447,30.868 125.422,31.067 125.422,32.369 L125.422,36.687 C125.422,37.468 125.46,37.791 125.684,38.026 C125.819,38.163 126.055,38.312 127.035,38.312 C128.09,38.312 128.35,38.262 128.549,38.15 C128.797,38.002 129.119,37.555 129.367,36.922 C129.441,36.86 129.678,36.91 129.678,36.997 C129.678,37.133 129.33,38.398 129.156,38.733 C128.523,38.709 127.346,38.696 126.067,38.696 L124.927,38.696 C124.405,38.696 124.008,38.709 123.313,38.733 C123.239,38.696 123.215,38.498 123.289,38.424 L123.661,38.386 C124.381,38.312 124.405,38.138 124.405,36.836 L124.405,32.369" id="Fill-27" sketch:type="MSShapeGroup"></path>
            <path d="M134.115,36.836 C134.115,38.138 134.141,38.324 134.859,38.386 L135.257,38.424 C135.331,38.473 135.307,38.696 135.232,38.732 C134.525,38.709 134.104,38.696 133.607,38.696 C133.111,38.696 132.676,38.709 131.883,38.732 C131.809,38.696 131.783,38.485 131.883,38.424 L132.329,38.386 C133.036,38.324 133.098,38.138 133.098,36.836 L133.098,31.29 C133.098,30.905 133.098,30.894 132.727,30.894 L132.044,30.894 C131.51,30.894 130.828,30.918 130.518,31.203 C130.22,31.477 130.095,31.749 129.959,32.06 C129.86,32.134 129.687,32.072 129.636,31.973 C129.836,31.414 130.021,30.62 130.108,30.124 C130.146,30.1 130.307,30.087 130.344,30.124 C130.418,30.522 130.828,30.509 131.398,30.509 L136.423,30.509 C137.093,30.509 137.205,30.484 137.391,30.161 C137.453,30.137 137.589,30.148 137.613,30.198 C137.478,30.707 137.391,31.712 137.428,32.084 C137.378,32.184 137.167,32.184 137.105,32.109 C137.068,31.799 136.98,31.34 136.795,31.203 C136.51,30.992 136.038,30.894 135.355,30.894 L134.475,30.894 C134.104,30.894 134.115,30.905 134.115,31.315 L134.115,36.836" id="Fill-28" sketch:type="MSShapeGroup"></path>
            <path d="M141.58,34.69 C140.984,34.69 140.959,34.714 140.959,35.086 L140.959,36.836 C140.959,38.138 141.021,38.312 141.717,38.386 L142.076,38.424 C142.15,38.473 142.125,38.696 142.051,38.733 C141.381,38.71 140.959,38.696 140.477,38.696 C139.942,38.696 139.521,38.721 139.037,38.733 C138.963,38.696 138.938,38.498 139.012,38.424 L139.223,38.386 C139.918,38.262 139.942,38.138 139.942,36.836 L139.942,32.369 C139.942,31.067 139.855,30.856 139.211,30.807 L138.888,30.781 C138.813,30.732 138.838,30.509 138.912,30.472 C139.521,30.484 139.942,30.509 140.477,30.509 C140.959,30.509 141.381,30.496 141.915,30.472 C141.989,30.509 142.014,30.732 141.939,30.781 L141.704,30.807 C140.984,30.881 140.959,31.067 140.959,32.369 L140.959,33.796 C140.959,34.181 140.984,34.193 141.58,34.193 L145.128,34.193 C145.723,34.193 145.748,34.181 145.748,33.796 L145.748,32.369 C145.748,31.067 145.723,30.881 144.991,30.807 L144.756,30.781 C144.682,30.732 144.706,30.509 144.78,30.472 C145.352,30.496 145.773,30.509 146.281,30.509 C146.766,30.509 147.188,30.496 147.746,30.472 C147.82,30.509 147.845,30.732 147.77,30.781 L147.51,30.807 C146.79,30.881 146.766,31.067 146.766,32.369 L146.766,36.836 C146.766,38.138 146.79,38.3 147.51,38.386 L147.808,38.424 C147.882,38.473 147.857,38.696 147.783,38.733 C147.188,38.71 146.766,38.696 146.281,38.696 C145.773,38.696 145.326,38.71 144.78,38.733 C144.706,38.696 144.682,38.498 144.756,38.424 L144.991,38.386 C145.748,38.262 145.748,38.138 145.748,36.836 L145.748,35.086 C145.748,34.714 145.723,34.69 145.128,34.69 L141.58,34.69" id="Fill-29" sketch:type="MSShapeGroup"></path>
            <path d="M155.467,38.895 C154.426,38.895 153.768,38.572 153.532,38.436 C153.383,38.163 153.222,37.282 153.197,36.699 C153.26,36.612 153.445,36.587 153.494,36.662 C153.682,37.295 154.189,38.51 155.629,38.51 C156.67,38.51 157.18,37.828 157.18,37.084 C157.18,36.538 157.067,35.93 156.162,35.347 L154.983,34.578 C154.363,34.168 153.644,33.461 153.644,32.444 C153.644,31.266 154.562,30.311 156.174,30.311 C156.559,30.311 157.006,30.385 157.328,30.472 C157.489,30.522 157.663,30.546 157.762,30.546 C157.874,30.844 157.985,31.538 157.985,32.06 C157.936,32.134 157.738,32.171 157.676,32.097 C157.514,31.501 157.18,30.694 155.988,30.694 C154.772,30.694 154.512,31.501 154.512,32.072 C154.512,32.79 155.107,33.313 155.566,33.598 L156.559,34.218 C157.34,34.702 158.109,35.421 158.109,36.6 C158.109,37.965 157.08,38.895 155.467,38.895" id="Fill-30" sketch:type="MSShapeGroup"></path>
            <path d="M163.541,36.811 C163.541,38.138 163.615,38.337 164.285,38.386 L164.756,38.424 C164.83,38.497 164.806,38.696 164.73,38.733 C163.962,38.709 163.541,38.696 163.044,38.696 C162.523,38.696 162.076,38.709 161.419,38.733 C161.345,38.696 161.32,38.497 161.395,38.424 L161.779,38.386 C162.498,38.312 162.523,38.138 162.523,36.811 L162.523,36.178 C162.523,35.496 162.486,35.334 162.126,34.64 L160.662,31.786 C160.24,30.968 160.055,30.905 159.682,30.844 L159.335,30.781 C159.26,30.694 159.273,30.522 159.359,30.472 C159.757,30.496 160.203,30.509 160.799,30.509 C161.369,30.509 161.816,30.496 162.126,30.472 C162.238,30.509 162.238,30.706 162.163,30.781 L162.002,30.807 C161.568,30.868 161.48,30.931 161.48,31.029 C161.48,31.153 161.804,31.861 161.865,31.985 C162.324,32.903 162.783,33.883 163.268,34.739 C163.652,34.081 164.062,33.362 164.434,32.643 C164.781,31.997 165.24,31.153 165.24,31.005 C165.24,30.931 165.017,30.844 164.719,30.807 L164.496,30.781 C164.408,30.694 164.421,30.522 164.52,30.472 C164.967,30.496 165.326,30.509 165.711,30.509 C166.096,30.509 166.443,30.496 166.865,30.472 C166.965,30.533 166.977,30.706 166.89,30.781 L166.543,30.844 C165.897,30.955 165.525,31.737 164.904,32.804 L164.123,34.156 C163.578,35.099 163.541,35.21 163.541,36.165 L163.541,36.811" id="Fill-31" sketch:type="MSShapeGroup"></path>
            <path d="M169.641,38.895 C168.599,38.895 167.941,38.572 167.705,38.436 C167.557,38.163 167.395,37.282 167.37,36.699 C167.433,36.612 167.619,36.587 167.668,36.662 C167.854,37.295 168.363,38.51 169.802,38.51 C170.844,38.51 171.353,37.828 171.353,37.084 C171.353,36.538 171.24,35.93 170.336,35.347 L169.156,34.578 C168.536,34.168 167.816,33.461 167.816,32.444 C167.816,31.266 168.734,30.311 170.348,30.311 C170.732,30.311 171.179,30.385 171.502,30.472 C171.661,30.522 171.836,30.546 171.936,30.546 C172.047,30.844 172.158,31.538 172.158,32.06 C172.109,32.134 171.91,32.171 171.849,32.097 C171.688,31.501 171.353,30.694 170.161,30.694 C168.945,30.694 168.686,31.501 168.686,32.072 C168.686,32.79 169.281,33.313 169.74,33.598 L170.732,34.218 C171.514,34.702 172.283,35.421 172.283,36.6 C172.283,37.965 171.254,38.895 169.641,38.895" id="Fill-32" sketch:type="MSShapeGroup"></path>
            <path d="M178.111,36.836 C178.111,38.138 178.135,38.324 178.855,38.386 L179.252,38.424 C179.326,38.473 179.301,38.696 179.227,38.732 C178.52,38.709 178.098,38.696 177.602,38.696 C177.105,38.696 176.672,38.709 175.877,38.732 C175.803,38.696 175.778,38.485 175.877,38.424 L176.324,38.386 C177.031,38.324 177.094,38.138 177.094,36.836 L177.094,31.29 C177.094,30.905 177.094,30.894 176.721,30.894 L176.039,30.894 C175.506,30.894 174.823,30.918 174.514,31.203 C174.215,31.477 174.091,31.749 173.955,32.06 C173.855,32.134 173.682,32.072 173.632,31.973 C173.83,31.414 174.017,30.62 174.104,30.124 C174.141,30.1 174.303,30.087 174.34,30.124 C174.414,30.522 174.823,30.509 175.395,30.509 L180.418,30.509 C181.088,30.509 181.199,30.484 181.386,30.161 C181.447,30.137 181.584,30.148 181.609,30.198 C181.473,30.707 181.386,31.712 181.423,32.084 C181.373,32.184 181.162,32.184 181.1,32.109 C181.063,31.799 180.977,31.34 180.79,31.203 C180.505,30.992 180.033,30.894 179.352,30.894 L178.471,30.894 C178.098,30.894 178.111,30.905 178.111,31.315 L178.111,36.836" id="Fill-33" sketch:type="MSShapeGroup"></path>
            <path d="M183.938,32.369 C183.938,31.079 183.912,30.894 183.18,30.807 L182.982,30.781 C182.907,30.732 182.932,30.509 183.007,30.472 C183.54,30.496 183.962,30.509 184.471,30.509 L186.803,30.509 C187.597,30.509 188.328,30.509 188.478,30.472 C188.552,30.682 188.627,31.575 188.676,32.121 C188.627,32.196 188.428,32.221 188.365,32.147 C188.18,31.564 188.068,31.129 187.423,30.968 C187.162,30.905 186.766,30.894 186.22,30.894 L185.326,30.894 C184.954,30.894 184.954,30.918 184.954,31.39 L184.954,33.87 C184.954,34.218 184.992,34.218 185.363,34.218 L186.084,34.218 C186.604,34.218 186.988,34.193 187.138,34.144 C187.287,34.094 187.373,34.02 187.436,33.709 L187.535,33.201 C187.597,33.126 187.808,33.126 187.857,33.213 C187.857,33.511 187.808,33.995 187.808,34.466 C187.808,34.913 187.857,35.384 187.857,35.657 C187.808,35.744 187.597,35.744 187.535,35.669 L187.423,35.186 C187.373,34.962 187.287,34.776 187.039,34.714 C186.865,34.664 186.566,34.652 186.084,34.652 L185.363,34.652 C184.992,34.652 184.954,34.664 184.954,34.987 L184.954,36.736 C184.954,37.394 184.992,37.815 185.189,38.026 C185.339,38.175 185.6,38.312 186.691,38.312 C187.646,38.312 188.006,38.262 188.279,38.126 C188.502,38.002 188.837,37.567 189.16,36.922 C189.246,36.86 189.42,36.898 189.47,37.009 C189.383,37.443 189.072,38.398 188.912,38.733 C187.795,38.709 186.691,38.696 185.587,38.696 L184.471,38.696 C183.938,38.696 183.516,38.709 182.783,38.733 C182.709,38.696 182.684,38.498 182.758,38.424 L183.168,38.386 C183.875,38.324 183.938,38.138 183.938,36.836 L183.938,32.369" id="Fill-34" sketch:type="MSShapeGroup"></path>
            <path d="M195.036,35.384 C195.321,35.967 195.594,36.538 195.893,37.084 L195.917,37.084 C196.252,36.501 196.563,35.856 196.872,35.223 L198.038,32.854 C198.597,31.725 198.956,31.042 198.98,30.472 C199.402,30.509 199.664,30.509 199.912,30.509 C200.222,30.509 200.631,30.496 201.015,30.472 C201.09,30.522 201.09,30.732 201.027,30.781 L200.768,30.807 C199.986,30.881 199.887,31.116 199.898,31.985 C199.924,33.3 199.936,35.595 200.035,37.381 C200.072,38.002 200.061,38.337 200.644,38.386 L201.041,38.424 C201.115,38.498 201.103,38.684 201.015,38.733 C200.507,38.709 199.998,38.697 199.552,38.697 C199.117,38.697 198.558,38.709 198.051,38.733 C197.964,38.672 197.951,38.498 198.025,38.424 L198.386,38.386 C198.994,38.324 198.994,38.126 198.994,37.332 L198.956,32.158 L198.932,32.158 C198.845,32.295 198.373,33.287 198.125,33.772 L197.021,35.942 C196.463,37.034 195.904,38.2 195.682,38.771 C195.656,38.808 195.607,38.82 195.557,38.82 C195.532,38.82 195.471,38.808 195.445,38.771 C195.234,38.113 194.639,36.898 194.354,36.29 L193.237,33.896 C192.977,33.325 192.717,32.68 192.443,32.109 L192.418,32.109 C192.369,32.878 192.332,33.598 192.295,34.317 C192.258,35.074 192.207,36.178 192.207,37.232 C192.207,38.15 192.282,38.349 192.765,38.386 L193.237,38.424 C193.324,38.498 193.313,38.697 193.224,38.733 C192.803,38.709 192.319,38.697 191.848,38.697 C191.451,38.697 191.004,38.709 190.582,38.733 C190.508,38.672 190.483,38.485 190.557,38.424 L190.83,38.386 C191.352,38.312 191.525,38.238 191.599,37.369 C191.674,36.55 191.736,35.868 191.811,34.64 C191.873,33.61 191.922,32.556 191.947,31.873 C191.973,31.092 191.873,30.905 191.116,30.807 L190.918,30.781 C190.855,30.707 190.868,30.522 190.967,30.472 C191.34,30.496 191.637,30.509 191.947,30.509 C192.232,30.509 192.567,30.509 192.977,30.472 C192.928,30.955 193.237,31.725 193.622,32.519 L195.036,35.384" id="Fill-35" sketch:type="MSShapeGroup"></path>
        </g>
    </g>
</svg>