<?xml version="1.0" encoding="UTF-8" standalone="no"?>
<svg width="24px" height="24px" viewBox="0 0 24 24" version="1.1" xmlns="http://www.w3.org/2000/svg" xmlns:xlink="http://www.w3.org/1999/xlink" xmlns:sketch="http://www.bohemiancoding.com/sketch/ns">
    <!-- Generator: Sketch Beta 3.4 (15009) - http://www.bohemiancoding.com/sketch -->
    <title>Shape</title>
    <desc>Created with Sketch Beta.</desc>
    <defs></defs>
    <g id="Direction-01" stroke="none" stroke-width="1" fill="none" fill-rule="evenodd" sketch:type="MSPage">
        <g id="Homepage" sketch:type="MSArtboardGroup" transform="translate(-162.000000, -2110.000000)" fill="#FFFFFF" opacity="0.7">
            <path d="M178.001333,2129.49875 L178.001333,2126.99917 C178.001333,2126.85386 177.954674,2126.73388 177.861356,2126.63923 C177.768039,2126.54458 177.648059,2126.49792 177.501416,2126.49925 L176.001666,2126.49925 L176.001666,2118.50058 C176.001666,2118.35527 175.955007,2118.23529 175.86169,2118.14064 C175.768372,2118.04599 175.648392,2117.99933 175.50175,2118.00067 L170.502583,2118.00067 C170.357274,2118.00067 170.237294,2118.04733 170.142643,2118.14064 C170.047992,2118.23396 170.001333,2118.35394 170.002666,2118.50058 L170.002666,2121.00017 C170.002666,2121.14548 170.049325,2121.26546 170.142643,2121.36011 C170.235961,2121.45476 170.355941,2121.50142 170.502583,2121.50008 L172.002333,2121.50008 L172.002333,2126.49925 L170.502583,2126.49925 C170.357274,2126.49925 170.237294,2126.54591 170.142643,2126.63923 C170.047992,2126.73254 170.001333,2126.85252 170.002666,2126.99917 L170.002666,2129.49875 C170.002666,2129.64406 170.049325,2129.76404 170.142643,2129.85869 C170.235961,2129.95334 170.355941,2130 170.502583,2129.99867 L177.501416,2129.99867 C177.646726,2129.99867 177.766706,2129.95201 177.861356,2129.85869 C177.956007,2129.76537 178.002666,2129.64539 178.001333,2129.49875 L178.001333,2129.49875 Z M176.001666,2115.50108 L176.001666,2113.0015 C176.001666,2112.85619 175.955007,2112.73621 175.86169,2112.64156 C175.768372,2112.54691 175.648392,2112.50025 175.50175,2112.50158 L172.50225,2112.50158 C172.356941,2112.50158 172.236961,2112.54824 172.14231,2112.64156 C172.047659,2112.73488 172.001,2112.85486 172.002333,2113.0015 L172.002333,2115.50108 C172.002333,2115.64639 172.048992,2115.76637 172.14231,2115.86102 C172.235627,2115.95567 172.355607,2116.00233 172.50225,2116.001 L175.50175,2116.001 C175.647059,2116.001 175.767039,2115.95434 175.86169,2115.86102 C175.956341,2115.76771 176.003,2115.64773 176.001666,2115.50108 L176.001666,2115.50108 Z M186,2122 C186,2124.17697 185.463423,2126.18464 184.390268,2128.023 C183.317114,2129.86136 181.861356,2131.31711 180.022996,2132.39027 C178.184636,2133.46342 176.176971,2134 174,2134 C171.823029,2134 169.815364,2133.46342 167.977004,2132.39027 C166.138644,2131.31711 164.682886,2129.86136 163.609732,2128.023 C162.536577,2126.18464 162,2124.17697 162,2122 C162,2119.82303 162.536577,2117.81536 163.609732,2115.977 C164.682886,2114.13864 166.138644,2112.68289 167.977004,2111.60973 C169.815364,2110.53658 171.823029,2110 174,2110 C176.176971,2110 178.184636,2110.53658 180.022996,2111.60973 C181.861356,2112.68289 183.317114,2114.13864 184.390268,2115.977 C185.463423,2117.81536 186,2119.82303 186,2122 L186,2122 Z" id="Shape" sketch:type="MSShapeGroup"></path>
        </g>
    </g>
</svg>