<?xml version="1.0" encoding="UTF-8" standalone="no"?>
<svg width="242px" height="51px" viewBox="0 0 242 51" version="1.1" xmlns="http://www.w3.org/2000/svg" xmlns:xlink="http://www.w3.org/1999/xlink" xmlns:sketch="http://www.bohemiancoding.com/sketch/ns">
    <!-- Generator: Sketch Beta 3.4 (14718) - http://www.bohemiancoding.com/sketch -->
    <title>Logo - Johns Hopkins - Enterprise</title>
    <desc>Created with Sketch Beta.</desc>
    <defs></defs>
    <g id="Direction-01" stroke="none" stroke-width="1" fill="none" fill-rule="evenodd" sketch:type="MSPage">
        <g id="Homepage" sketch:type="MSArtboardGroup" transform="translate(-488.000000, -2515.000000)" fill="#FFFFFF">
            <g id="footer" sketch:type="MSLayerGroup" transform="translate(0.000000, 2423.000000)">
                <g id="42:0" transform="translate(438.000000, 42.000000)" sketch:type="MSShapeGroup">
                    <g id="Logo---Johns-Hopkins---Enterprise">
                        <g id="Johns-Hopkins" transform="translate(49.765625, 49.429688)">
                            <path d="M7.87740625,6.57014063 C7.87740625,2.35125 7.49666406,1.89435938 5.25629687,1.70332031 L4.30644531,1.62850781 C4.07532812,1.47621094 4.15414844,0.793546875 4.38125781,0.67865625 C6.58822656,0.75346875 7.87740625,0.793546875 9.47251562,0.793546875 C10.9928125,0.793546875 12.286,0.75346875 13.8049609,0.67865625 C14.0347422,0.793546875 14.1108906,1.47621094 13.8824453,1.62850781 L13.3133359,1.70332031 C11.0729687,2.00925 10.9928125,2.54095313 10.9928125,6.57014063 L10.9928125,20.6709609 C10.9928125,23.6714766 10.8418516,26.2939219 10.1217812,28.0413281 C8.86466406,31.0845938 6.16740625,33.516 2.6351875,33.516 C2.17696094,33.516 1,33.4785938 1,32.7171094 C1,32.0718516 1.56777344,30.9697031 2.36532812,30.9697031 C2.82221875,30.9697031 3.27910937,31.0445156 3.77340625,31.1968125 C4.30644531,31.3504453 4.83814844,31.4626641 5.36851562,31.4626641 C6.16740625,31.4626641 6.62429687,31.0084453 6.8888125,30.4767422 C7.76251562,28.6892578 7.87740625,22.9874766 7.87740625,20.9368125 L7.87740625,6.57014063" id="Fill-1"></path>
                            <path d="M13.7996172,15.5209219 C13.7996172,9.10842188 18.613,4.20152344 25.2165391,4.20152344 C32.6229766,4.20152344 36.3435625,9.55729688 36.3435625,15.2002969 C36.3435625,21.6755859 31.4059375,26.3901094 25.2165391,26.3901094 C18.0986641,26.3901094 13.7996172,21.2908359 13.7996172,15.5209219 M33.1373125,16.1928984 C33.1373125,10.9039219 30.7954141,5.19679688 24.6714766,5.19679688 C21.3369766,5.19679688 17.009875,7.47323438 17.009875,14.4949219 C17.009875,19.2375 19.318375,25.3961719 25.6333516,25.3961719 C29.4821875,25.3961719 33.1373125,22.5105469 33.1373125,16.1928984" id="Fill-2"></path>
                            <path d="M43.6257578,15.5209219 C42.0880937,15.5209219 42.0226328,15.5850469 42.0226328,16.5469219 L42.0226328,21.0663984 C42.0226328,24.4329609 42.1842812,24.8818359 43.9784453,25.0742109 L44.9082578,25.1717344 C45.1006328,25.2986484 45.0365078,25.8757734 44.8427969,25.9719609 C43.1114219,25.9065 42.0226328,25.8757734 40.7708594,25.8757734 C39.3935078,25.8757734 38.3047187,25.9412344 37.0529453,25.9719609 C36.8605703,25.8757734 36.7977812,25.3627734 36.9901562,25.1717344 L37.5338828,25.0742109 C39.3280469,24.7562578 39.3935078,24.4329609 39.3935078,21.0663984 L39.3935078,9.52389844 C39.3935078,6.15733594 39.1704062,5.61227344 37.5004844,5.48402344 L36.6668594,5.41989844 C36.4758203,5.29164844 36.5412812,4.7131875 36.7323203,4.61833594 C38.3047187,4.65039844 39.3935078,4.7131875 40.7708594,4.7131875 C42.0226328,4.7131875 43.1114219,4.68246094 44.4901094,4.61833594 C44.6838203,4.7131875 44.7492812,5.29164844 44.5528984,5.41989844 L43.9463828,5.48402344 C42.0880937,5.67773437 42.0226328,6.15733594 42.0226328,9.52389844 L42.0226328,13.2110859 C42.0226328,14.2050234 42.0880937,14.2384219 43.6257578,14.2384219 L52.7956328,14.2384219 C54.3346328,14.2384219 54.3987578,14.2050234 54.3987578,13.2110859 L54.3987578,9.52389844 C54.3987578,6.15733594 54.3346328,5.67773437 52.4442812,5.48402344 L51.8337578,5.41989844 C51.6400469,5.29164844 51.7055078,4.7131875 51.8978828,4.61833594 C53.3714219,4.68246094 54.4602109,4.7131875 55.7787812,4.7131875 C57.0265469,4.7131875 58.1193437,4.68246094 59.5621562,4.61833594 C59.7505234,4.7131875 59.8159844,5.29164844 59.6276172,5.41989844 L58.9516328,5.48402344 C57.0920078,5.67773437 57.0265469,6.15733594 57.0265469,9.52389844 L57.0265469,21.0663984 C57.0265469,24.4329609 57.0920078,24.8497734 58.9516328,25.0742109 L59.7197969,25.1717344 C59.9121719,25.2986484 59.8480469,25.8757734 59.6570078,25.9719609 C58.1193437,25.9065 57.0265469,25.8757734 55.7787812,25.8757734 C54.4602109,25.8757734 53.3086328,25.9065 51.8978828,25.9719609 C51.7055078,25.8757734 51.6400469,25.3627734 51.8337578,25.1717344 L52.4442812,25.0742109 C54.3987578,24.7562578 54.3987578,24.4329609 54.3987578,21.0663984 L54.3987578,16.5469219 C54.3987578,15.5850469 54.3346328,15.5209219 52.7956328,15.5209219 L43.6257578,15.5209219" id="Fill-3"></path>
                            <path d="M81.6224922,20.4251484 C81.6224922,21.3883594 81.6224922,25.2037969 81.7160078,26.0374219 C81.6545547,26.2284609 81.4635156,26.3901094 81.1108281,26.3901094 C80.7247422,25.8450469 79.7935938,24.7228594 77.0041563,21.5500078 L69.5669922,13.0828359 C68.7026406,12.0902344 66.5197188,9.46110937 65.8464063,8.75573437 L65.7836172,8.75573437 C65.6540313,9.14048437 65.6233047,9.87658594 65.6233047,10.8384609 L65.6233047,17.8294219 C65.6233047,19.3350234 65.6540313,23.5031484 66.2004297,24.4636875 C66.3941406,24.8190469 67.0340547,25.0114219 67.8356172,25.0742109 L68.8268828,25.1717344 C69.0232656,25.4282344 68.9898672,25.8129844 68.7654297,25.9719609 C67.3239531,25.9078359 66.2004297,25.8757734 65.0114453,25.8757734 C63.6688281,25.8757734 62.8031406,25.9078359 61.6769453,25.9719609 C61.4538438,25.8129844 61.4231172,25.3627734 61.6154922,25.1717344 L62.4811797,25.0742109 C63.2199531,24.9780234 63.7302813,24.7883203 63.8932656,24.4329609 C64.3408047,23.2787109 64.3100781,19.3684219 64.3100781,17.8294219 L64.3100781,8.56335937 C64.3100781,7.66560937 64.2766797,6.99096094 63.6020313,6.25485937 C63.1531563,5.80598437 62.3863281,5.58154687 61.6154922,5.48402344 L61.0717656,5.42123437 C60.8793906,5.22885937 60.8793906,4.74792187 61.1345547,4.61833594 C62.4811797,4.7131875 64.1818281,4.7131875 64.7576172,4.7131875 C65.2706172,4.7131875 65.8170156,4.68246094 66.2338281,4.61833594 C66.8750781,6.25485937 70.6584531,10.4871094 71.7138438,11.6720859 L74.8252422,15.1655625 C77.0362188,17.6357109 78.6072813,19.4312109 80.1142188,20.9702109 L80.1796797,20.9702109 C80.3079297,20.8112344 80.3079297,20.2968984 80.3079297,19.6235859 L80.3079297,12.7622109 C80.3079297,11.2566094 80.2758672,7.08848437 79.6666797,6.12660937 C79.4743047,5.83671094 78.9613047,5.64433594 77.6788047,5.48402344 L77.1350781,5.42123437 C76.9106406,5.22885937 76.9413672,4.7131875 77.1965313,4.61833594 C78.6727422,4.68246094 79.7615313,4.7131875 80.9812422,4.7131875 C82.3585938,4.7131875 83.1935547,4.68246094 84.2836797,4.61833594 C84.5401797,4.77864844 84.5401797,5.22885937 84.3491406,5.42123437 L83.8975938,5.48402344 C82.8742656,5.64433594 82.2316797,5.90217187 82.0994219,6.15733594 C81.5597031,7.31292187 81.6224922,11.2873359 81.6224922,12.7622109 L81.6224922,20.4251484" id="Fill-4"></path>
                            <path d="M90.0976797,26.3901094 C87.4030937,26.3901094 85.7037812,25.5564844 85.0932578,25.2037969 C84.7125156,24.4984219 84.2943672,22.2219844 84.2275703,20.7150469 C84.3905547,20.4906094 84.8701562,20.4251484 84.9997422,20.6188594 C85.4793437,22.2527109 86.7939062,25.3961719 90.5118203,25.3961719 C93.2064062,25.3961719 94.5223047,23.6327344 94.5223047,21.7076484 C94.5223047,20.2968984 94.2337422,18.7258359 91.8905078,17.2202344 L88.8459062,15.2310234 C87.2414453,14.1729609 85.3844922,12.3440625 85.3844922,9.71760937 C85.3844922,6.67033594 87.7557812,4.20285937 91.9225703,4.20285937 C92.9178437,4.20285937 94.0734297,4.39523437 94.9070547,4.61833594 C95.3225312,4.74792187 95.7700703,4.81204687 96.0252344,4.81204687 C96.3151328,5.58154687 96.6050312,7.37704687 96.6050312,8.72367187 C96.4767812,8.91604687 95.9651172,9.0095625 95.8021328,8.81985937 C95.3866562,7.27952344 94.5223047,5.19679687 91.4429687,5.19679687 C88.3021797,5.19679687 87.6275312,7.27952344 87.6275312,8.75573437 C87.6275312,10.6140234 89.1678672,11.9619844 90.3515078,12.6994219 L92.9178437,14.3012109 C94.9391172,15.5529844 96.9256562,17.4112734 96.9256562,20.4585469 C96.9256562,23.9840859 94.2644687,26.3901094 90.0976797,26.3901094" id="Fill-5"></path>
                            <path d="M115.956086,13.6011797 C114.131195,13.6011797 114.055047,13.6773281 114.055047,14.8168828 L114.055047,20.1766641 C114.055047,24.1671094 114.246086,24.7001484 116.372898,24.9272578 L117.476383,25.0408125 C117.703492,25.1931094 117.627344,25.8757734 117.40157,25.9906641 C115.34957,25.9118438 114.055047,25.8757734 112.574828,25.8757734 C110.939641,25.8757734 109.646453,25.9519219 108.166234,25.9906641 C107.936453,25.8757734 107.860305,25.2692578 108.090086,25.0408125 L108.735344,24.9272578 C110.863492,24.5478516 110.939641,24.1671094 110.939641,20.1766641 L110.939641,6.49399219 C110.939641,2.50221094 110.671117,1.85695313 108.697938,1.70465625 L107.709344,1.62850781 C107.482234,1.47621094 107.555711,0.793546875 107.785492,0.67865625 C109.646453,0.7160625 110.939641,0.793546875 112.574828,0.793546875 C114.055047,0.793546875 115.34957,0.754804688 116.982086,0.67865625 C117.210531,0.793546875 117.28668,1.47621094 117.056898,1.62850781 L116.334156,1.70465625 C114.131195,1.9344375 114.055047,2.50221094 114.055047,6.49399219 L114.055047,10.8651797 C114.055047,12.0434766 114.131195,12.0782109 115.956086,12.0782109 L126.825273,12.0782109 C128.650164,12.0782109 128.723641,12.0434766 128.723641,10.8651797 L128.723641,6.49399219 C128.723641,2.50221094 128.650164,1.9344375 126.405789,1.70465625 L125.684383,1.62850781 C125.455938,1.47621094 125.532086,0.793546875 125.761867,0.67865625 C127.506602,0.754804688 128.801125,0.793546875 130.360164,0.793546875 C131.840383,0.793546875 133.13357,0.754804688 134.844906,0.67865625 C135.07068,0.793546875 135.148164,1.47621094 134.918383,1.62850781 L134.120828,1.70465625 C131.917867,1.9344375 131.840383,2.50221094 131.840383,6.49399219 L131.840383,20.1766641 C131.840383,24.1671094 131.917867,24.6587344 134.120828,24.9272578 L135.033273,25.0408125 C135.261719,25.1931094 135.184234,25.8757734 134.955789,25.9906641 C133.13357,25.9118438 131.840383,25.8757734 130.360164,25.8757734 C128.801125,25.8757734 127.433125,25.9118438 125.761867,25.9906641 C125.532086,25.8757734 125.455938,25.2692578 125.684383,25.0408125 L126.405789,24.9272578 C128.723641,24.5478516 128.723641,24.1671094 128.723641,20.1766641 L128.723641,14.8168828 C128.723641,13.6773281 128.650164,13.6011797 126.825273,13.6011797 L115.956086,13.6011797" id="Fill-6"></path>
                            <path d="M134.792805,15.5209219 C134.792805,9.10842188 139.603516,4.20152344 146.208391,4.20152344 C153.613492,4.20152344 157.332742,9.55729688 157.332742,15.2002969 C157.332742,21.6755859 152.396453,26.3901094 146.208391,26.3901094 C139.090516,26.3901094 134.792805,21.2908359 134.792805,15.5209219 M154.127828,16.1928984 C154.127828,10.9039219 151.787266,5.19679688 145.661992,5.19679688 C142.328828,5.19679688 138.000391,7.47323438 138.000391,14.4949219 C138.000391,19.2375 140.308891,25.3961719 146.625203,25.3961719 C150.474039,25.3961719 154.127828,22.5105469 154.127828,16.1928984" id="Fill-7"></path>
                            <path d="M163.137391,21.0677344 C163.137391,24.4342969 163.201516,24.8511094 165.250844,25.0755469 L166.119203,25.1703984 C166.310242,25.329375 166.247453,25.8771094 166.055078,25.9719609 C164.227516,25.9078359 163.170789,25.8771094 161.885617,25.8771094 C160.538992,25.8771094 159.386078,25.9078359 157.975328,25.9719609 C157.782953,25.8771094 157.718828,25.3627734 157.911203,25.1703984 L158.58318,25.0755469 C160.444141,24.8203828 160.508266,24.4342969 160.508266,21.0677344 L160.508266,9.23800781 C160.508266,6.51002344 160.444141,5.963625 159.001328,5.80598438 L157.847078,5.67639844 C157.622641,5.48402344 157.654703,5.00442188 157.911203,4.87483594 C159.610516,4.65039844 161.597055,4.617 164.259578,4.617 C166.91943,4.617 168.908641,4.97102344 170.415578,5.90083594 C171.889117,6.83198438 172.979242,8.49789844 172.979242,10.7115469 C172.979242,13.6612969 171.153016,15.1361719 169.772992,15.8094844 C168.362242,16.4814609 166.664266,16.7713594 165.348367,16.7713594 C165.125266,16.6738359 165.125266,16.1942344 165.316305,16.1314453 C168.779055,15.4888594 170.029492,13.5317109 170.029492,10.7409375 C170.029492,7.630875 168.203266,5.61360938 164.868766,5.61360938 C163.170789,5.61360938 163.137391,5.7391875 163.137391,6.76785938 L163.137391,21.0677344" id="Fill-8"></path>
                            <path d="M176.478062,9.52389844 C176.478062,6.15733594 176.412602,5.64433594 174.552977,5.48535937 L173.751414,5.42123437 C173.557703,5.29164844 173.623164,4.7131875 173.814203,4.61833594 C175.385266,4.68246094 176.412602,4.7131875 177.855414,4.7131875 C179.104516,4.7131875 180.197312,4.68246094 181.576,4.61833594 C181.767039,4.7131875 181.831164,5.29164844 181.638789,5.42123437 L181.030937,5.48535937 C179.168641,5.67773437 179.104516,6.15733594 179.104516,9.52389844 L179.104516,13.2124219 C179.104516,13.8216094 179.168641,14.4321328 179.524,14.4321328 C179.811227,14.4321328 180.197312,14.2384219 180.420414,14.0767734 C180.869289,13.6933594 181.70425,12.8583984 182.055602,12.5377734 L185.517016,9.10842187 C186.126203,8.53129687 187.698602,6.89610937 188.017891,6.44589844 C188.179539,6.22279687 188.243664,6.06114844 188.243664,5.93289844 C188.243664,5.80598437 188.11675,5.70979687 187.698602,5.61227344 L186.83425,5.42123437 C186.608477,5.19679687 186.640539,4.77864844 186.897039,4.61833594 C188.017891,4.68246094 189.300391,4.7131875 190.423914,4.7131875 C191.546102,4.7131875 192.634891,4.68246094 193.598102,4.61833594 C193.821203,4.77864844 193.85193,5.22885937 193.662227,5.42123437 C192.828602,5.48535937 191.578164,5.80598437 190.679078,6.31898437 C189.782664,6.83198437 187.987164,8.33758594 186.191664,10.0382344 L183.306039,12.7622109 C182.857164,13.2124219 182.568602,13.5009844 182.568602,13.7574844 C182.568602,13.9805859 182.760977,14.2384219 183.177789,14.7500859 C186.225062,18.2448984 188.692539,21.1318594 191.193414,23.7596484 C191.962914,24.5291484 192.669625,24.9472969 193.761086,25.0755469 L194.624102,25.1717344 C194.849875,25.3307109 194.784414,25.8757734 194.559977,25.9732969 C193.726352,25.9078359 192.475914,25.8757734 190.968977,25.8757734 C189.65575,25.8757734 188.532227,25.9078359 187.057352,25.9732969 C186.83425,25.9078359 186.736727,25.3627734 186.929102,25.1717344 L187.666539,25.0421484 C188.11675,24.9780234 188.436039,24.8818359 188.436039,24.7228594 C188.436039,24.5291484 188.211602,24.2739844 187.987164,23.9840859 C187.376641,23.2145859 186.544352,22.3502344 185.325977,20.9702109 L182.760977,18.0845859 C180.932078,16.0339219 180.420414,15.3926719 179.650914,15.3926719 C179.168641,15.3926719 179.104516,15.8094844 179.104516,16.9316719 L179.104516,21.0677344 C179.104516,24.4329609 179.168641,24.8818359 180.965477,25.0755469 L181.831164,25.1717344 C182.022203,25.2999844 181.96075,25.8757734 181.767039,25.9732969 C180.197312,25.9078359 179.104516,25.8757734 177.855414,25.8757734 C176.540852,25.8757734 175.450727,25.9078359 174.1375,25.9732969 C173.945125,25.8757734 173.878328,25.3961719 174.072039,25.1717344 L174.713289,25.0755469 C176.412602,24.8190469 176.478062,24.4329609 176.478062,21.0677344 L176.478062,9.52389844" id="Fill-9"></path>
                            <path d="M198.483625,9.58935938 C198.483625,6.18939844 198.4195,5.64433594 196.527812,5.48402344 L195.72625,5.42123438 C195.532539,5.29164844 195.598,4.71452344 195.790375,4.617 C197.3935,4.68246094 198.483625,4.71452344 199.83025,4.71452344 C201.111414,4.71452344 202.202875,4.68246094 203.807336,4.617 C203.999711,4.71452344 204.0625,5.29164844 203.870125,5.42123438 L203.068562,5.48402344 C201.176875,5.64433594 201.111414,6.18939844 201.111414,9.58935938 L201.111414,21.0022734 C201.111414,24.4022344 201.176875,24.8511094 203.068562,25.0755469 L203.870125,25.1717344 C204.0625,25.2986484 203.999711,25.8757734 203.807336,25.9732969 C202.202875,25.9078359 201.111414,25.8757734 199.83025,25.8757734 C198.483625,25.8757734 197.3935,25.9078359 195.790375,25.9732969 C195.598,25.8757734 195.532539,25.3641094 195.72625,25.1717344 L196.527812,25.0755469 C198.4195,24.8511094 198.483625,24.4022344 198.483625,21.0022734 L198.483625,9.58935938" id="Fill-10"></path>
                            <path d="M226.217688,20.4251484 C226.217688,21.3883594 226.217688,25.2037969 226.315211,26.0374219 C226.24975,26.2284609 226.060047,26.3901094 225.706023,26.3901094 C225.321273,25.8450469 224.391461,24.7228594 221.602023,21.5500078 L214.163523,13.0828359 C213.297836,12.0902344 211.11625,9.46110937 210.444273,8.75573437 L210.381484,8.75573437 C210.251898,9.14048437 210.2185,9.87658594 210.2185,10.8384609 L210.2185,17.8294219 C210.2185,19.3350234 210.251898,23.5031484 210.796961,24.4636875 C210.990672,24.8190469 211.630586,25.0114219 212.433484,25.0742109 L213.426086,25.1717344 C213.618461,25.4282344 213.586398,25.8129844 213.361961,25.9719609 C211.919148,25.9078359 210.796961,25.8757734 209.609313,25.8757734 C208.265359,25.8757734 207.397,25.9078359 206.276148,25.9719609 C206.051711,25.8129844 206.019648,25.3627734 206.212023,25.1717344 L207.079047,25.0742109 C207.815148,24.9780234 208.328148,24.7883203 208.488461,24.4329609 C208.937336,23.2787109 208.905273,19.3684219 208.905273,17.8294219 L208.905273,8.56335937 C208.905273,7.66560937 208.874547,6.99096094 208.201234,6.25485937 C207.751023,5.80598437 206.981523,5.58154687 206.212023,5.48402344 L205.666961,5.42123437 C205.474586,5.22885937 205.474586,4.74792187 205.732422,4.61833594 C207.079047,4.7131875 208.777023,4.7131875 209.354148,4.7131875 C209.867148,4.7131875 210.412211,4.68246094 210.829023,4.61833594 C211.470273,6.25485937 215.253648,10.4871094 216.310375,11.6720859 L219.421773,15.1655625 C221.63275,17.6357109 223.203813,19.4312109 224.71075,20.9702109 L224.776211,20.9702109 C224.904461,20.8112344 224.904461,20.2968984 224.904461,19.6235859 L224.904461,12.7622109 C224.904461,11.2566094 224.871063,7.08848437 224.263211,6.12660937 C224.072172,5.83671094 223.557836,5.64433594 222.276672,5.48402344 L221.731609,5.42123437 C221.505836,5.22885937 221.537898,4.7131875 221.794398,4.61833594 C223.269273,4.68246094 224.359398,4.7131875 225.577773,4.7131875 C226.957797,4.7131875 227.791422,4.68246094 228.880211,4.61833594 C229.138047,4.77864844 229.138047,5.22885937 228.944336,5.42123437 L228.495461,5.48402344 C227.470797,5.64433594 226.828211,5.90217187 226.698625,6.15733594 C226.154898,7.31292187 226.217688,11.2873359 226.217688,12.7622109 L226.217688,20.4251484" id="Fill-11"></path>
                            <path d="M234.638102,26.3901094 C231.944852,26.3901094 230.246875,25.5564844 229.636352,25.2037969 C229.251602,24.4984219 228.834789,22.2219844 228.770664,20.7150469 C228.930977,20.4906094 229.414586,20.4251484 229.538828,20.6188594 C230.021102,22.2527109 231.335664,25.3961719 235.053578,25.3961719 C237.748164,25.3961719 239.062727,23.6327344 239.062727,21.7076484 C239.062727,20.2968984 238.772828,18.7258359 236.432266,17.2202344 L233.387664,15.2310234 C231.784539,14.1729609 229.923578,12.3440625 229.923578,9.71760937 C229.923578,6.67033594 232.297539,4.20285937 236.465664,4.20285937 C237.459602,4.20285937 238.612516,4.39523437 239.447477,4.61833594 C239.864289,4.74792187 240.313164,4.81204687 240.569664,4.81204687 C240.859562,5.58154687 241.146789,7.37704687 241.146789,8.72367187 C241.018539,8.91604687 240.505539,9.0095625 240.343891,8.81985937 C239.928414,7.27952344 239.062727,5.19679687 235.986062,5.19679687 C232.843937,5.19679687 232.169289,7.27952344 232.169289,8.75573437 C232.169289,10.6140234 233.708289,11.9619844 234.893266,12.6994219 L237.459602,14.3012109 C239.480875,15.5529844 241.46875,17.4112734 241.46875,20.4585469 C241.46875,23.9840859 238.806227,26.3901094 234.638102,26.3901094" id="Fill-12"></path>
                        </g>
                        <g id="University-&amp;-Medicine" transform="translate(62.789062, 88.171875)">
                            <path d="M9.66684375,5.62296094 C9.66684375,4.595625 9.63344531,2.69057813 9.35289844,2.19360938 C9.23533594,1.99321875 8.93742187,1.87832813 8.52328125,1.84492969 L8.10914062,1.81153125 C8.00894531,1.69664063 8.04367969,1.48021875 8.14120312,1.41475781 C8.77176562,1.44682031 9.38496094,1.4641875 10.0315547,1.4641875 C10.7275781,1.4641875 11.1751172,1.44682031 11.7722812,1.41475781 C11.9045391,1.49625 11.8871719,1.71133594 11.8043437,1.81153125 L11.4062344,1.84492969 C10.9934297,1.87832813 10.6781484,2.02795313 10.5792891,2.24303906 C10.3455,2.7894375 10.3455,4.69582031 10.3455,5.62296094 L10.3455,7.49594531 C10.3455,8.93742188 10.1143828,10.4630625 9.18724219,11.457 C8.47385156,12.2358516 7.246125,12.6660234 6.02107031,12.6660234 C4.87750781,12.6660234 3.73394531,12.4509375 2.92169531,11.75625 C2.04264844,11.0268281 1.62850781,9.81646875 1.62850781,7.844625 L1.62850781,3.933 C1.62850781,2.20964063 1.59510937,1.92775781 0.634570312,1.84492969 L0.221765625,1.81153125 C0.120234375,1.74607031 0.153632812,1.4641875 0.253828125,1.41475781 C1.08210937,1.44682031 1.645875,1.4641875 2.30983594,1.4641875 C2.98715625,1.4641875 3.53489062,1.44682031 4.34714062,1.41475781 C4.446,1.4641875 4.48073437,1.74607031 4.37920312,1.81153125 L3.98242969,1.84492969 C3.02055469,1.92775781 2.98715625,2.20964063 2.98715625,3.933 L2.98715625,7.5133125 C2.98715625,10.1811797 3.81677344,11.9379375 6.35238281,11.9379375 C8.75439844,11.9379375 9.66684375,10.0489219 9.66684375,7.52934375 L9.66684375,5.62296094" id="Fill-13"></path>
                            <path d="M23.8638516,9.58401563 C23.8638516,10.0823203 23.8638516,12.0528281 23.9132813,12.4856719 C23.8812188,12.5845313 23.7810234,12.6660234 23.598,12.6660234 C23.3989453,12.3854766 22.9180078,11.8056797 21.4765313,10.1638125 L17.6317031,5.78861719 C17.1841641,5.27561719 16.0593047,3.91696875 15.7092891,3.55225781 L15.6772266,3.55225781 C15.6104297,3.7513125 15.5943984,4.13205469 15.5943984,4.62902344 L15.5943984,8.24273438 C15.5943984,9.02158594 15.6104297,11.1751172 15.8923125,11.67075 C15.9911719,11.8551094 16.3224844,11.9539688 16.7379609,11.9873672 L17.2509609,12.0381328 C17.3511563,12.1690547 17.3337891,12.3694453 17.2175625,12.4496016 C16.4721094,12.418875 15.8923125,12.4015078 15.2791172,12.4015078 C14.5830938,12.4015078 14.1355547,12.418875 13.5557578,12.4496016 C13.4395313,12.3694453 13.4235,12.1369922 13.5223594,12.0381328 L13.9712344,11.9873672 C14.3506406,11.9379375 14.6164922,11.8364063 14.6993203,11.6560547 C14.9304375,11.0575547 14.9144063,9.03761719 14.9144063,8.24273438 L14.9144063,3.4520625 C14.9144063,2.98715625 14.898375,2.64114844 14.5496953,2.25907031 C14.3172422,2.02795313 13.9204688,1.91172656 13.5223594,1.86229688 L13.2404766,1.8275625 C13.1416172,1.72870313 13.1416172,1.48021875 13.2752109,1.41475781 C13.9712344,1.4641875 14.8476094,1.4641875 15.1468594,1.4641875 C15.411375,1.4641875 15.6932578,1.44682031 15.9083438,1.41475781 C16.2396563,2.25907031 18.1954688,4.44733594 18.7432031,5.06053125 L20.3503359,6.86671875 C21.4938984,8.14253906 22.3048125,9.07101563 23.085,9.86589844 L23.1170625,9.86589844 C23.1838594,9.78307031 23.1838594,9.51855469 23.1838594,9.169875 L23.1838594,5.62296094 C23.1838594,4.84410938 23.1678281,2.69057813 22.8525469,2.19360938 C22.7523516,2.04398438 22.4878359,1.94378906 21.8252109,1.86229688 L21.5433281,1.8275625 C21.4271016,1.72870313 21.4431328,1.4641875 21.5767266,1.41475781 C22.3382109,1.44682031 22.9019766,1.4641875 23.5312031,1.4641875 C24.2445938,1.4641875 24.6747656,1.44682031 25.2385313,1.41475781 C25.372125,1.49625 25.372125,1.72870313 25.2732656,1.8275625 L25.0394766,1.86229688 C24.5091094,1.94378906 24.1777969,2.07738281 24.1123359,2.20830469 C23.8304531,2.80680469 23.8638516,4.86147656 23.8638516,5.62296094 L23.8638516,9.58401563" id="Fill-14"></path>
                            <path d="M28.7467031,3.98242969 C28.7467031,2.22567188 28.7133047,1.94378906 27.7353984,1.86229688 L27.3212578,1.8275625 C27.2223984,1.76210156 27.2544609,1.4641875 27.3546563,1.41475781 C28.1829375,1.44682031 28.7467031,1.4641875 29.4427266,1.4641875 C30.1053516,1.4641875 30.6691172,1.44682031 31.4973984,1.41475781 C31.5975938,1.4641875 31.6309922,1.76210156 31.5307969,1.8275625 L31.1166563,1.86229688 C30.13875,1.94378906 30.1053516,2.22567188 30.1053516,3.98242969 L30.1053516,9.88192969 C30.1053516,11.6400234 30.13875,11.8711406 31.1166563,11.9873672 L31.5307969,12.0381328 C31.6309922,12.1035938 31.5975938,12.4015078 31.4973984,12.4509375 C30.6691172,12.4175391 30.1053516,12.4015078 29.4427266,12.4015078 C28.7467031,12.4015078 28.1829375,12.4175391 27.3546563,12.4509375 C27.2544609,12.4015078 27.2223984,12.1369922 27.3212578,12.0381328 L27.7353984,11.9873672 C28.7133047,11.8711406 28.7467031,11.6400234 28.7467031,9.88192969 L28.7467031,3.98242969" id="Fill-15"></path>
                            <path d="M34.7103281,3.21960938 C34.32825,2.29246875 34.0797656,1.94378906 33.3677109,1.86229688 L33.0684609,1.8275625 C32.9535703,1.72870313 32.9696016,1.49625 33.1018594,1.41475781 C33.5827969,1.44682031 34.1131641,1.46552344 34.8252187,1.46552344 C35.5546406,1.46552344 36.1357734,1.44682031 36.8317969,1.41475781 C36.9466875,1.48021875 36.9800859,1.72870313 36.8638594,1.8275625 L36.615375,1.86229688 C35.9861484,1.94378906 35.8538906,2.04398438 35.8365234,2.17624219 C35.8699219,2.34189844 36.1518047,3.23697656 36.6661406,4.49676563 C37.427625,6.42051563 38.1904453,8.32422656 39.0187266,10.2145781 C39.5330625,9.12044531 40.2290859,7.41311719 40.6098281,6.53540625 C41.0907656,5.407875 41.8696172,3.53489063 42.1515,2.82283594 C42.2837578,2.47549219 42.301125,2.29246875 42.301125,2.17624219 C42.301125,2.06001563 42.1354688,1.92775781 41.5543359,1.86229688 L41.2564219,1.8275625 C41.1401953,1.72870313 41.1735938,1.48021875 41.2898203,1.41475781 C41.7533906,1.44682031 42.3839531,1.46552344 43.0131797,1.46552344 C43.5609141,1.46552344 44.0739141,1.44682031 44.6203125,1.41475781 C44.7365391,1.48021875 44.7365391,1.74607031 44.6537109,1.8275625 L44.1567422,1.86229688 C43.7586328,1.89435938 43.5101484,2.09341406 43.2950625,2.44075781 C42.8314922,3.21960938 42.1848984,4.56222656 41.4394453,6.25485938 L40.5443672,8.29216406 C39.8804063,9.81646875 39.1015547,11.7388828 38.8196719,12.6165938 C38.7702422,12.6513281 38.7047813,12.6660234 38.6379844,12.6660234 C38.5551562,12.6660234 38.4723281,12.6513281 38.3895,12.6165938 C38.2064766,11.9219063 37.9085625,11.1083203 37.6266797,10.4136328 L34.7103281,3.21960938" id="Fill-16"></path>
                            <path d="M47.2000078,3.94903125 C47.2000078,2.22567187 47.1679453,1.9771875 46.1900391,1.86363281 L45.9255234,1.8275625 C45.8239922,1.76210156 45.8587266,1.4641875 45.9575859,1.41609375 C46.6709766,1.44682031 47.2334062,1.4641875 47.9120625,1.4641875 L51.0288047,1.4641875 C52.090875,1.4641875 53.0687812,1.4641875 53.2678359,1.41609375 C53.3653594,1.69664062 53.4655547,2.88829687 53.5310156,3.61771875 C53.4655547,3.71791406 53.1997031,3.7513125 53.116875,3.65111719 C52.8697266,2.87226562 52.7187656,2.29246875 51.8570859,2.07738281 C51.5110781,1.99321875 50.9807109,1.9771875 50.2499531,1.9771875 L49.0582969,1.9771875 C48.5599922,1.9771875 48.5599922,2.01058594 48.5599922,2.64248437 L48.5599922,5.95427344 C48.5599922,6.41917969 48.6107578,6.41917969 49.1063906,6.41917969 L50.0669297,6.41917969 C50.7642891,6.41917969 51.2772891,6.38578125 51.4776797,6.31898437 C51.6767344,6.25352344 51.7929609,6.15332812 51.8757891,5.7391875 L52.0080469,5.06053125 C52.090875,4.96033594 52.3727578,4.96033594 52.4382187,5.0765625 C52.4382187,5.47467187 52.3727578,6.12126562 52.3727578,6.75049219 C52.3727578,7.34765625 52.4382187,7.97688281 52.4382187,8.34159375 C52.3727578,8.45782031 52.090875,8.45782031 52.0080469,8.357625 L51.8570859,7.71103125 C51.7929609,7.41311719 51.6767344,7.16463281 51.3454219,7.08180469 C51.1116328,7.01500781 50.7135234,6.99897656 50.0669297,6.99897656 L49.1063906,6.99897656 C48.6107578,6.99897656 48.5599922,7.01500781 48.5599922,7.44651562 L48.5599922,9.78307031 C48.5599922,10.6607812 48.6107578,11.2245469 48.8752734,11.5064297 C49.0729922,11.7054844 49.4216719,11.8871719 50.8791797,11.8871719 C52.155,11.8871719 52.6359375,11.8217109 53.0006484,11.6400234 C53.2985625,11.4743672 53.7461016,10.8932344 54.1789453,10.0315547 C54.2951719,9.94872656 54.5249531,9.99815625 54.59175,10.1477812 C54.4755234,10.7275781 54.0613828,12.0033984 53.8476328,12.4509375 C52.3540547,12.418875 50.8791797,12.4015078 49.4043047,12.4015078 L47.9120625,12.4015078 C47.2000078,12.4015078 46.6375781,12.418875 45.6596719,12.4509375 C45.5608125,12.4015078 45.5274141,12.1369922 45.6249375,12.0381328 L46.1726719,11.9873672 C47.1185156,11.9045391 47.2000078,11.6573906 47.2000078,9.91666406 L47.2000078,3.94903125" id="Fill-17"></path>
                            <path d="M57.7031484,3.96639844 C57.7031484,2.39132813 57.6537188,2.10944531 56.9737266,2.02795313 L56.4446953,1.96115625 C56.3284688,1.87832813 56.3284688,1.61247656 56.4607266,1.54567969 C57.3878672,1.46552344 58.5314297,1.41475781 60.1559297,1.41475781 C61.1832656,1.41475781 62.1611719,1.49625 62.9253281,1.91172656 C63.718875,2.32586719 64.2986719,3.07132031 64.2986719,4.23091406 C64.2986719,5.80732031 63.05625,6.66766406 62.2293047,6.99897656 C62.1464766,7.09783594 62.2293047,7.26482813 62.3121328,7.39708594 C63.6360469,9.53458594 64.5164297,10.8611719 65.6412891,11.8056797 C65.9231719,12.0528281 66.3373125,12.2358516 66.7848516,12.26925 C66.8676797,12.3026484 66.8837109,12.4349063 66.8008828,12.5003672 C66.6539297,12.5511328 66.3867422,12.5845313 66.0741328,12.5845313 C64.6633828,12.5845313 63.8190703,12.1690547 62.6434453,10.495125 C62.2106016,9.88192969 61.5332813,8.73970313 61.0176094,7.99291406 C60.769125,7.62820313 60.5046094,7.46254688 59.8419844,7.46254688 C59.0951953,7.46254688 59.0617969,7.47991406 59.0617969,7.82725781 L59.0617969,9.91666406 C59.0617969,11.6560547 59.0951953,11.8551094 60.0584063,11.9873672 L60.4044141,12.0381328 C60.5046094,12.119625 60.4725469,12.4015078 60.3710156,12.4509375 C59.6255625,12.418875 59.0617969,12.4015078 58.3991719,12.4015078 C57.7031484,12.4015078 57.1073203,12.418875 56.3284688,12.4509375 C56.2282734,12.4015078 56.194875,12.1543594 56.2937344,12.0381328 L56.7092109,11.9873672 C57.6710859,11.8711406 57.7031484,11.6560547 57.7031484,9.91666406 L57.7031484,3.96639844 L57.7031484,3.96639844 Z M59.0617969,6.33635156 C59.0617969,6.63426563 59.0617969,6.81728906 59.1125625,6.88275 C59.1619922,6.93217969 59.4104766,6.96557813 60.256125,6.96557813 C60.8519531,6.96557813 61.4825156,6.90011719 61.9621172,6.53540625 C62.4096563,6.18672656 62.7917344,5.60692969 62.7917344,4.48073438 C62.7917344,3.17017969 61.9808203,1.92775781 60.1412344,1.92775781 C59.1125625,1.92775781 59.0617969,1.99321875 59.0617969,2.458125 L59.0617969,6.33635156 L59.0617969,6.33635156 Z" id="Fill-18"></path>
                            <path d="M70.8073594,12.6660234 C69.4153125,12.6660234 68.5362656,12.2358516 68.2223203,12.0528281 C68.0246016,11.6894531 67.8068437,10.5124922 67.7747812,9.73364063 C67.8576094,9.61741406 68.1060937,9.58401563 68.1715547,9.68421094 C68.421375,10.5298594 69.1013672,12.1530234 71.0237812,12.1530234 C72.4158281,12.1530234 73.0944844,11.2419141 73.0944844,10.2466406 C73.0944844,9.51855469 72.9461953,8.70630469 71.7358359,7.92745313 L70.1621016,6.90011719 C69.3324844,6.35238281 68.3706094,5.407875 68.3706094,4.04922656 C68.3706094,2.47549219 69.597,1.19833594 71.7532031,1.19833594 C72.2662031,1.19833594 72.8620312,1.29853125 73.2935391,1.41475781 C73.508625,1.48021875 73.7410781,1.51361719 73.8733359,1.51361719 C74.0229609,1.91172656 74.1725859,2.83886719 74.1725859,3.53489063 C74.1057891,3.63508594 73.8399375,3.68451563 73.7571094,3.58565625 C73.5420234,2.7894375 73.0944844,1.71133594 71.5033828,1.71133594 C69.8802187,1.71133594 69.5315391,2.7894375 69.5315391,3.55225781 C69.5315391,4.51146094 70.3277578,5.20882031 70.9409531,5.59089844 L72.2662031,6.41917969 C73.3109062,7.06577344 74.3395781,8.0263125 74.3395781,9.60138281 C74.3395781,11.4249375 72.9622266,12.6660234 70.8073594,12.6660234" id="Fill-19"></path>
                            <path d="M78.1456641,3.98242969 C78.1456641,2.22567188 78.1122656,1.94378906 77.1343594,1.86229688 L76.7202188,1.8275625 C76.6213594,1.76210156 76.6520859,1.4641875 76.7536172,1.41475781 C77.5818984,1.44682031 78.1456641,1.4641875 78.8416875,1.4641875 C79.5043125,1.4641875 80.0680781,1.44682031 80.8963594,1.41475781 C80.9952188,1.4641875 81.0299531,1.76210156 80.9297578,1.8275625 L80.5156172,1.86229688 C79.5377109,1.94378906 79.5043125,2.22567188 79.5043125,3.98242969 L79.5043125,9.88192969 C79.5043125,11.6400234 79.5377109,11.8711406 80.5156172,11.9873672 L80.9297578,12.0381328 C81.0299531,12.1035938 80.9952188,12.4015078 80.8963594,12.4509375 C80.0680781,12.4175391 79.5043125,12.4015078 78.8416875,12.4015078 C78.1456641,12.4015078 77.5818984,12.4175391 76.7536172,12.4509375 C76.6520859,12.4015078 76.6213594,12.1369922 76.7202188,12.0381328 L77.1343594,11.9873672 C78.1122656,11.8711406 78.1456641,11.6400234 78.1456641,9.88192969 L78.1456641,3.98242969" id="Fill-20"></path>
                            <path d="M88.5512813,9.91666406 C88.5512813,11.6560547 88.5833438,11.9045391 89.5452188,11.9873672 L90.0755859,12.0381328 C90.1731094,12.1035937 90.1410469,12.4015078 90.0421875,12.4509375 C89.0976797,12.418875 88.5339141,12.4015078 87.8712891,12.4015078 C87.2086641,12.4015078 86.6288672,12.418875 85.5681328,12.4509375 C85.4679375,12.4015078 85.4345391,12.119625 85.5681328,12.0381328 L86.1639609,11.9873672 C87.1084688,11.9045391 87.1912969,11.6560547 87.1912969,9.91666406 L87.1912969,2.50755469 C87.1912969,1.99321875 87.1912969,1.9771875 86.6943281,1.9771875 L85.7832188,1.9771875 C85.0711641,1.9771875 84.1587188,2.01058594 83.7445781,2.39132812 C83.3464688,2.75603906 83.1808125,3.12075 82.999125,3.53489062 C82.8668672,3.63508594 82.6330781,3.55225781 82.5676172,3.42 C82.8334688,2.67321094 83.0806172,1.61247656 83.1981797,0.949851562 C83.2462734,0.917789062 83.4626953,0.900421875 83.5134609,0.949851562 C83.6123203,1.48155469 84.1587188,1.4641875 84.9215391,1.4641875 L91.6332891,1.4641875 C92.5283672,1.4641875 92.6779922,1.43078906 92.9264766,0.99928125 C93.0093047,0.96721875 93.1909922,0.98325 93.2243906,1.04871094 C93.0427031,1.72870312 92.9264766,3.07132031 92.9759063,3.56828906 C92.9091094,3.70188281 92.6272266,3.70188281 92.5430625,3.6016875 C92.4949688,3.18754687 92.3787422,2.57435156 92.1302578,2.39132812 C91.7495156,2.10944531 91.1189531,1.9771875 90.2078438,1.9771875 L89.0308828,1.9771875 C88.5339141,1.9771875 88.5512813,1.99321875 88.5512813,2.54095312 L88.5512813,9.91666406" id="Fill-21"></path>
                            <path d="M99.7811719,9.88192969 C99.7811719,11.6560547 99.8813672,11.9219063 100.776445,11.9873672 L101.405672,12.0381328 C101.505867,12.1369922 101.472469,12.4015078 101.372273,12.4509375 C100.344937,12.418875 99.7811719,12.4015078 99.1185469,12.4015078 C98.4225234,12.4015078 97.8266953,12.418875 96.9476484,12.4509375 C96.8487891,12.4015078 96.8153906,12.1369922 96.91425,12.0381328 L97.4285859,11.9873672 C98.389125,11.8871719 98.4225234,11.6560547 98.4225234,9.88192969 L98.4225234,9.03761719 C98.4225234,8.12784375 98.3730937,7.91008594 97.8921562,6.98294531 L95.9363437,3.17017969 C95.3725781,2.07738281 95.1240937,1.99321875 94.627125,1.91172656 L94.1635547,1.8275625 C94.0633594,1.71133594 94.0807266,1.48021875 94.1969531,1.41475781 C94.7273203,1.44815625 95.3231484,1.4641875 96.1193672,1.4641875 C96.8808516,1.4641875 97.4780156,1.44815625 97.8921562,1.41475781 C98.0417812,1.4641875 98.0417812,1.72870313 97.9415859,1.8275625 L97.7265,1.86229688 C97.1467031,1.94378906 97.0304766,2.02795313 97.0304766,2.158875 C97.0304766,2.32586719 97.4619844,3.270375 97.5448125,3.43603125 C98.1580078,4.66242188 98.7712031,5.97164063 99.4177969,7.11520313 C99.9307969,6.23749219 100.477195,5.27561719 100.9755,4.31374219 C101.43907,3.45339844 102.052266,2.32586719 102.052266,2.1268125 C102.052266,2.02795313 101.754352,1.91172656 101.356242,1.86229688 L101.058328,1.8275625 C100.942102,1.71133594 100.958133,1.48021875 101.090391,1.41475781 C101.687555,1.44815625 102.168492,1.4641875 102.681492,1.4641875 C103.195828,1.4641875 103.659398,1.44815625 104.223164,1.41475781 C104.355422,1.49625 104.372789,1.72870313 104.256562,1.8275625 L103.791656,1.91172656 C102.929977,2.06135156 102.433008,3.10471875 101.604727,4.53016406 L100.560023,6.33635156 C99.8319375,7.59614063 99.7811719,7.74442969 99.7811719,9.02158594 L99.7811719,9.88192969" id="Fill-22"></path>
                            <path d="M115.950023,2.50755469 C115.950023,2.87226563 115.668141,3.17017969 115.319461,3.17017969 C115.021547,3.17017969 114.922687,2.97246094 114.855891,2.67321094 C114.807797,2.458125 114.590039,2.19360938 114.258727,2.19360938 C113.944781,2.19360938 113.581406,2.34189844 113.181961,2.72264063 C112.501969,3.36923438 112.355016,4.28034375 112.355016,4.82807813 C112.355016,5.15939063 112.385742,5.407875 112.452539,5.54013281 C112.667625,5.32504688 113.181961,4.96033594 113.811188,4.96033594 C114.90532,4.96033594 115.255336,5.73785156 115.255336,6.33635156 C115.255336,7.2140625 114.557977,7.71103125 113.811188,7.71103125 C112.982906,7.71103125 112.403109,7.182 112.154625,6.61823438 C111.922172,6.94954688 111.723117,7.47991406 111.723117,8.30819531 C111.723117,9.74967188 112.833281,11.5905938 115.518516,11.5905938 C116.52982,11.5905938 117.458297,11.2579453 118.120922,10.7449453 C118.899773,10.1477813 119.662594,8.95478906 119.662594,7.67896875 C119.662594,6.61823438 119.396742,6.05446875 119.297883,5.93824219 C119.197687,5.80598438 118.867711,5.70578906 118.20375,5.70578906 C117.574523,5.70578906 116.978695,6.0705 116.978695,6.83332031 C116.978695,7.14860156 117.192445,7.29555469 117.310008,7.29555469 C117.426234,7.29555469 117.491695,7.23142969 117.574523,7.08180469 C117.673383,6.93217969 117.772242,6.76652344 118.022062,6.76652344 C118.319977,6.76652344 118.536398,6.99897656 118.536398,7.29555469 C118.536398,7.74442969 118.088859,7.97688281 117.639984,7.97688281 C116.894531,7.97688281 116.446992,7.37971875 116.446992,6.78389063 C116.446992,6.43521094 116.563219,6.0384375 116.8785,5.68975781 C117.34207,5.14335938 118.20375,5.00976563 118.66732,5.00976563 C118.999969,5.00976563 119.331281,5.02713281 120.027305,5.02713281 C120.822187,5.02713281 122.496117,5.00976563 122.496117,3.270375 C122.496117,2.27510156 121.634437,1.92775781 121.220297,1.92775781 C120.971812,1.92775781 120.888984,2.158875 120.888984,2.22567188 C120.888984,2.30983594 120.922383,2.37529688 121.054641,2.47549219 C121.186898,2.57435156 121.401984,2.72264063 121.401984,3.02189063 C121.401984,3.51885938 121.038609,3.71791406 120.68993,3.71791406 C120.226359,3.71791406 119.87768,3.33583594 119.87768,2.85623438 C119.87768,2.24303906 120.34125,1.53098438 121.320492,1.53098438 C122.230266,1.53098438 123.109313,2.34189844 123.109313,3.61771875 C123.109313,4.36450781 122.843461,4.82807813 122.430656,5.2261875 C121.634437,5.97164063 120.226359,5.90484375 120.027305,5.90484375 C119.844281,5.90484375 119.810883,5.97164063 119.87768,6.18672656 C119.927109,6.33635156 120.325219,7.14860156 120.325219,8.12650781 C120.325219,10.3294688 118.385438,12.6339609 115.453055,12.6339609 C111.988969,12.6339609 110.993695,10.2306094 110.993695,8.60610938 C110.993695,7.66160156 111.342375,6.73446094 111.922172,6.0384375 C111.839344,5.77258594 111.772547,5.42524219 111.772547,4.91090625 C111.772547,4.06525781 112.071797,3.17017969 112.602164,2.52492188 C113.164594,1.8275625 113.994211,1.48021875 114.623438,1.48021875 C115.469086,1.48021875 115.950023,1.9771875 115.950023,2.50755469 M112.602164,5.98767188 C112.76782,6.56880469 113.197992,7.04840625 113.861953,7.04840625 C114.292125,7.04840625 114.656836,6.78389063 114.656836,6.33635156 C114.656836,5.92221094 114.358922,5.45730469 113.728359,5.45730469 C113.132531,5.45730469 112.684992,5.87278125 112.602164,5.98767188" id="Fill-23"></path>
                            <path d="M134.353898,7.97688281 C134.735977,8.75573438 135.099352,9.51855469 135.498797,10.2479766 L135.530859,10.2479766 C135.978398,9.469125 136.393875,8.60610938 136.80668,7.76179688 L138.364383,4.595625 C139.111172,3.0886875 139.590773,2.17624219 139.624172,1.41475781 C140.187938,1.4641875 140.536617,1.4641875 140.86793,1.4641875 C141.28207,1.4641875 141.828469,1.44682031 142.341469,1.41475781 C142.441664,1.48021875 142.441664,1.76210156 142.358836,1.8275625 L142.011492,1.86229688 C140.968125,1.96115625 140.834531,2.27510156 140.850563,3.43603125 C140.883961,5.19278906 140.899992,8.25876563 141.03225,10.64475 C141.08168,11.4743672 141.066984,11.9219063 141.845836,11.9873672 L142.376203,12.0381328 C142.475062,12.1369922 142.459031,12.3854766 142.341469,12.4509375 C141.662812,12.418875 140.98282,12.4028438 140.386992,12.4028438 C139.805859,12.4028438 139.05907,12.418875 138.38175,12.4509375 C138.265523,12.3694453 138.248156,12.1369922 138.348352,12.0381328 L138.829289,11.9873672 C139.641539,11.9045391 139.641539,11.6400234 139.641539,10.5792891 L139.590773,3.66714844 L139.558711,3.66714844 C139.442484,3.85017188 138.811922,5.17542188 138.480609,5.82201563 L137.00707,8.72233594 C136.260281,10.1811797 135.514828,11.7388828 135.216914,12.5003672 C135.18218,12.5511328 135.118055,12.5671641 135.049922,12.5671641 C135.016523,12.5671641 134.935031,12.5511328 134.901633,12.5003672 C134.61975,11.6213203 133.823531,9.99815625 133.442789,9.18724219 L131.950547,5.98767188 C131.603203,5.2261875 131.255859,4.36450781 130.891148,3.6016875 L130.856414,3.6016875 C130.790953,4.62902344 130.741523,5.59089844 130.692094,6.5514375 C130.642664,7.56274219 130.574531,9.03761719 130.574531,10.4456953 C130.574531,11.6720859 130.674727,11.9379375 131.319984,11.9873672 L131.950547,12.0381328 C132.066773,12.1369922 132.052078,12.4028438 131.93318,12.4509375 C131.37075,12.418875 130.724156,12.4028438 130.09493,12.4028438 C129.564562,12.4028438 128.967398,12.418875 128.403633,12.4509375 C128.304773,12.3694453 128.272711,12.119625 128.370234,12.0381328 L128.734945,11.9873672 C129.432305,11.8871719 129.664758,11.7883125 129.762281,10.6287188 C129.862477,9.53458594 129.946641,8.62347656 130.0455,6.98294531 C130.128328,5.60692969 130.193789,4.19885156 130.227187,3.28640625 C130.261922,2.24303906 130.128328,1.99321875 129.117023,1.86229688 L128.852508,1.8275625 C128.76968,1.72870313 128.785711,1.48021875 128.917969,1.41475781 C129.416273,1.44682031 129.813047,1.4641875 130.227187,1.4641875 C130.609266,1.4641875 131.056805,1.4641875 131.603203,1.41475781 C131.537742,2.06001563 131.950547,3.0886875 132.464883,4.14808594 L134.353898,7.97688281" id="Fill-24"></path>
                            <path d="M145.964531,3.94903125 C145.964531,2.22567187 145.931133,1.9771875 144.954562,1.86363281 L144.688711,1.8275625 C144.588516,1.76210156 144.62325,1.4641875 144.722109,1.41609375 C145.4355,1.44682031 145.99793,1.4641875 146.676586,1.4641875 L149.793328,1.4641875 C150.854063,1.4641875 151.831969,1.4641875 152.031023,1.41609375 C152.129883,1.69664062 152.228742,2.88829687 152.295539,3.61771875 C152.228742,3.71791406 151.964227,3.7513125 151.881398,3.65111719 C151.632914,2.87226562 151.483289,2.29246875 150.621609,2.07738281 C150.274266,1.99321875 149.743898,1.9771875 149.014477,1.9771875 L147.821484,1.9771875 C147.32318,1.9771875 147.32318,2.01058594 147.32318,2.64248437 L147.32318,5.95427344 C147.32318,6.41917969 147.372609,6.41917969 147.87225,6.41917969 L148.831453,6.41917969 C149.528812,6.41917969 150.041813,6.38578125 150.240867,6.31898437 C150.438586,6.25352344 150.557484,6.15332812 150.638977,5.7391875 L150.769898,5.06053125 C150.854063,4.96033594 151.135945,4.96033594 151.201406,5.0765625 C151.201406,5.47467187 151.135945,6.12126562 151.135945,6.75049219 C151.135945,7.34765625 151.201406,7.97688281 151.201406,8.34159375 C151.135945,8.45782031 150.854063,8.45782031 150.769898,8.357625 L150.621609,7.71103125 C150.557484,7.41311719 150.438586,7.16463281 150.107273,7.08180469 C149.87482,7.01500781 149.479383,6.99897656 148.831453,6.99897656 L147.87225,6.99897656 C147.372609,6.99897656 147.32318,7.01500781 147.32318,7.44651562 L147.32318,9.78307031 C147.32318,10.6607812 147.372609,11.2245469 147.639797,11.5064297 C147.837516,11.7054844 148.184859,11.8871719 149.643703,11.8871719 C150.919523,11.8871719 151.400461,11.8217109 151.765172,11.6400234 C152.064422,11.4743672 152.510625,10.8932344 152.940797,10.0315547 C153.058359,9.94872656 153.290812,9.99815625 153.356273,10.1477812 C153.240047,10.7275781 152.825906,12.0033984 152.609484,12.4509375 C151.118578,12.418875 149.643703,12.4015078 148.168828,12.4015078 L146.676586,12.4015078 C145.964531,12.4015078 145.400766,12.418875 144.422859,12.4509375 C144.324,12.4015078 144.291938,12.1369922 144.390797,12.0381328 L144.937195,11.9873672 C145.881703,11.9045391 145.964531,11.6573906 145.964531,9.91666406 L145.964531,3.94903125" id="Fill-25"></path>
                            <path d="M156.466336,3.61771875 C156.466336,2.458125 156.384844,2.10944531 155.68882,2.01058594 L155.324109,1.96115625 C155.190516,1.87832813 155.174484,1.61247656 155.338805,1.54567969 C156.748219,1.4641875 158.092172,1.41475781 159.50025,1.41475781 C160.892297,1.41475781 162.067922,1.51361719 163.146023,1.91172656 C165.383719,2.72264063 166.509914,4.61299219 166.509914,6.79992188 C166.509914,8.90535938 165.499945,10.7115469 163.61093,11.7388828 C162.532828,12.3186797 161.17418,12.5351016 159.897023,12.5351016 C158.836289,12.5351016 157.776891,12.4001719 157.197094,12.4001719 C156.499734,12.4001719 155.90257,12.418875 155.126391,12.4509375 C155.026195,12.4001719 154.992797,12.1369922 155.091656,12.0381328 L155.472398,11.9873672 C156.434273,11.8551094 156.466336,11.6560547 156.466336,9.91666406 L156.466336,3.61771875 L156.466336,3.61771875 Z M157.82632,9.53458594 C157.82632,10.4136328 157.87575,10.9426641 158.157633,11.3407734 C158.522344,11.8551094 159.15157,12.0207656 160.194937,12.0207656 C163.410539,12.0207656 164.852016,9.91666406 164.852016,6.83332031 C164.852016,5.00976563 163.975641,1.92775781 159.633844,1.92775781 C158.655937,1.92775781 158.124234,2.06001563 157.991977,2.15753906 C157.859719,2.25907031 157.82632,2.67321094 157.82632,3.42 L157.82632,9.53458594 L157.82632,9.53458594 Z" id="Fill-26"></path>
                            <path d="M170.217141,3.98242969 C170.217141,2.22567188 170.183742,1.94378906 169.2045,1.86229688 L168.791695,1.8275625 C168.692836,1.76210156 168.724898,1.4641875 168.823758,1.41475781 C169.653375,1.44682031 170.217141,1.4641875 170.9145,1.4641875 C171.575789,1.4641875 172.138219,1.44682031 172.967836,1.41475781 C173.066695,1.4641875 173.100094,1.76210156 173.001234,1.8275625 L172.587094,1.86229688 C171.607852,1.94378906 171.575789,2.22567188 171.575789,3.98242969 L171.575789,9.88192969 C171.575789,11.6400234 171.607852,11.8711406 172.587094,11.9873672 L173.001234,12.0381328 C173.100094,12.1035938 173.066695,12.4015078 172.967836,12.4509375 C172.138219,12.4175391 171.575789,12.4015078 170.9145,12.4015078 C170.217141,12.4015078 169.653375,12.4175391 168.823758,12.4509375 C168.724898,12.4015078 168.692836,12.1369922 168.791695,12.0381328 L169.2045,11.9873672 C170.183742,11.8711406 170.217141,11.6400234 170.217141,9.88192969 L170.217141,3.98242969" id="Fill-27"></path>
                            <path d="M177.340359,2.60641406 C178.549383,1.66190625 180.091055,1.19833594 181.81575,1.19833594 C182.710828,1.19833594 183.969281,1.38002344 184.748133,1.59644531 C184.945852,1.645875 185.062078,1.67927344 185.213039,1.66190625 C185.227734,2.04398438 185.311898,3.0886875 185.445492,4.09865625 C185.361328,4.21488281 185.112844,4.23091406 184.996617,4.13205469 C184.748133,3.00452344 184.001344,1.71133594 181.599328,1.71133594 C179.062383,1.71133594 176.910187,3.31980469 176.910187,6.75049219 C176.910187,10.2306094 179.113148,12.1543594 181.830445,12.1543594 C183.969281,12.1543594 184.913789,10.7623125 185.294531,9.78307031 C185.410758,9.70024219 185.659242,9.73364063 185.726039,9.84986719 C185.609812,10.7115469 185.178305,11.8056797 184.931156,12.119625 C184.730766,12.1543594 184.531711,12.2184844 184.350023,12.2852813 C183.986648,12.418875 182.79232,12.6660234 181.731586,12.6660234 C180.239344,12.6660234 178.815234,12.3694453 177.604875,11.5558594 C176.278289,10.64475 175.252289,9.13647656 175.252289,6.99897656 C175.252289,5.15939063 176.08057,3.58565625 177.340359,2.60641406" id="Fill-28"></path>
                            <path d="M189.001758,3.98242969 C189.001758,2.22567188 188.968359,1.94378906 187.991789,1.86229688 L187.576312,1.8275625 C187.477453,1.76210156 187.509516,1.4641875 187.611047,1.41475781 C188.437992,1.44682031 189.001758,1.4641875 189.696445,1.4641875 C190.360406,1.4641875 190.924172,1.44682031 191.752453,1.41475781 C191.852648,1.4641875 191.886047,1.76210156 191.785852,1.8275625 L191.371711,1.86229688 C190.395141,1.94378906 190.360406,2.22567188 190.360406,3.98242969 L190.360406,9.88192969 C190.360406,11.6400234 190.395141,11.8711406 191.371711,11.9873672 L191.785852,12.0381328 C191.886047,12.1035938 191.852648,12.4015078 191.752453,12.4509375 C190.924172,12.4175391 190.360406,12.4015078 189.696445,12.4015078 C189.001758,12.4015078 188.437992,12.4175391 187.611047,12.4509375 C187.509516,12.4015078 187.477453,12.1369922 187.576312,12.0381328 L187.991789,11.9873672 C188.968359,11.8711406 189.001758,11.6400234 189.001758,9.88192969 L189.001758,3.98242969" id="Fill-29"></path>
                            <path d="M204.345,9.58401563 C204.345,10.0823203 204.345,12.0528281 204.39443,12.4856719 C204.362367,12.5845313 204.262172,12.6660234 204.080484,12.6660234 C203.880094,12.3854766 203.399156,11.8056797 201.959016,10.1638125 L198.112852,5.78861719 C197.666648,5.27561719 196.539117,3.91696875 196.190437,3.55225781 L196.158375,3.55225781 C196.090242,3.7513125 196.075547,4.13205469 196.075547,4.62902344 L196.075547,8.24273438 C196.075547,9.02158594 196.090242,11.1751172 196.372125,11.67075 C196.47232,11.8551094 196.803633,11.9539688 197.217773,11.9873672 L197.732109,12.0381328 C197.830969,12.1690547 197.814937,12.3694453 197.698711,12.4496016 C196.953258,12.418875 196.372125,12.4015078 195.75893,12.4015078 C195.064242,12.4015078 194.616703,12.418875 194.036906,12.4496016 C193.919344,12.3694453 193.904648,12.1369922 194.003508,12.0381328 L194.451047,11.9873672 C194.831789,11.9379375 195.096305,11.8364063 195.180469,11.6560547 C195.411586,11.0575547 195.395555,9.03761719 195.395555,8.24273438 L195.395555,3.4520625 C195.395555,2.98715625 195.378187,2.64114844 195.030844,2.25907031 C194.799727,2.02795313 194.401617,1.91172656 194.003508,1.86229688 L193.721625,1.8275625 C193.622766,1.72870313 193.622766,1.48021875 193.755023,1.41475781 C194.451047,1.4641875 195.328758,1.4641875 195.628008,1.4641875 C195.892523,1.4641875 196.174406,1.44682031 196.390828,1.41475781 C196.722141,2.25907031 198.676617,4.44733594 199.224352,5.06053125 L200.831484,6.86671875 C201.975047,8.14253906 202.785961,9.07101563 203.566148,9.86589844 L203.598211,9.86589844 C203.665008,9.78307031 203.665008,9.51855469 203.665008,9.169875 L203.665008,5.62296094 C203.665008,4.84410938 203.648977,2.69057813 203.333695,2.19360938 C203.234836,2.04398438 202.968984,1.94378906 202.306359,1.86229688 L202.024477,1.8275625 C201.909586,1.72870313 201.924281,1.4641875 202.057875,1.41475781 C202.819359,1.44682031 203.383125,1.4641875 204.012352,1.4641875 C204.725742,1.4641875 205.155914,1.44682031 205.71968,1.41475781 C205.853273,1.49625 205.853273,1.72870313 205.753078,1.8275625 L205.520625,1.86229688 C204.990258,1.94378906 204.658945,2.07738281 204.596156,2.20830469 C204.312937,2.80680469 204.345,4.86147656 204.345,5.62296094 L204.345,9.58401563" id="Fill-30"></path>
                            <path d="M209.227852,3.94903125 C209.227852,2.22567187 209.194453,1.9771875 208.215211,1.86363281 L207.952031,1.8275625 C207.851836,1.76210156 207.883898,1.4641875 207.98543,1.41609375 C208.697484,1.44682031 209.26125,1.4641875 209.939906,1.4641875 L213.055313,1.4641875 C214.116047,1.4641875 215.093953,1.4641875 215.293008,1.41609375 C215.393203,1.69664062 215.493398,2.88829687 215.557523,3.61771875 C215.493398,3.71791406 215.226211,3.7513125 215.143383,3.65111719 C214.894898,2.87226562 214.746609,2.29246875 213.88493,2.07738281 C213.53625,1.99321875 213.005883,1.9771875 212.277797,1.9771875 L211.083469,1.9771875 C210.5865,1.9771875 210.5865,2.01058594 210.5865,2.64248437 L210.5865,5.95427344 C210.5865,6.41917969 210.637266,6.41917969 211.132898,6.41917969 L212.094773,6.41917969 C212.789461,6.41917969 213.303797,6.38578125 213.502852,6.31898437 C213.703242,6.25352344 213.818133,6.15332812 213.900961,5.7391875 L214.034555,5.06053125 C214.116047,4.96033594 214.39793,4.96033594 214.464727,5.0765625 C214.464727,5.47467187 214.39793,6.12126562 214.39793,6.75049219 C214.39793,7.34765625 214.464727,7.97688281 214.464727,8.34159375 C214.39793,8.45782031 214.116047,8.45782031 214.034555,8.357625 L213.88493,7.71103125 C213.818133,7.41311719 213.703242,7.16463281 213.37193,7.08180469 C213.139477,7.01500781 212.740031,6.99897656 212.094773,6.99897656 L211.132898,6.99897656 C210.637266,6.99897656 210.5865,7.01500781 210.5865,7.44651562 L210.5865,9.78307031 C210.5865,10.6607812 210.637266,11.2245469 210.900445,11.5064297 C211.100836,11.7054844 211.44818,11.8871719 212.907023,11.8871719 C214.182844,11.8871719 214.663781,11.8217109 215.028492,11.6400234 C215.326406,11.4743672 215.773945,10.8932344 216.205453,10.0315547 C216.320344,9.94872656 216.552797,9.99815625 216.619594,10.1477812 C216.503367,10.7275781 216.087891,12.0033984 215.874141,12.4509375 C214.381898,12.418875 212.907023,12.4015078 211.432148,12.4015078 L209.939906,12.4015078 C209.227852,12.4015078 208.664086,12.418875 207.68618,12.4509375 C207.585984,12.4015078 207.552586,12.1369922 207.651445,12.0381328 L208.19918,11.9873672 C209.145023,11.9045391 209.227852,11.6573906 209.227852,9.91666406 L209.227852,3.94903125" id="Fill-31"></path>
                        </g>
                    </g>
                </g>
            </g>
        </g>
    </g>
</svg>